<svg id="Layer_1" xmlns="http://www.w3.org/2000/svg" viewBox="0 0 202.5 239.3"><style>.st0{fill:#92c54e}.st1{fill:#333}</style><path class="st0" d="M168.8 107.5c0 29-23.5 52.5-52.5 52.5s-52.5-23.5-52.5-52.5S87.3 55 116.3 55s52.5 23.5 52.5 52.5zm0 0"/><path class="st1" d="M194.1 21.3c-26.3 0-52.1-5-76.5-14.7l-1.3-.6-1.4.6c-24.4 9.8-50.2 14.7-76.5 14.7H30V100H11.3C5 100 0 105.1 0 111.3V175c0 6.2 5 11.3 11.3 11.3H45c8.9 14.1 21.1 25.7 35.8 33.7l35.5 19.3 35.5-19.3c31.3-17.1 50.8-49.9 50.8-85.5V21.3h-8.5zM7.5 175v-63.7c0-2.1 1.7-3.8 3.8-3.8H45c2.1 0 3.7 1.7 3.7 3.8V175c0 2.1-1.7 3.8-3.7 3.8H11.3c-2.1 0-3.8-1.7-3.8-3.8zm48.7-56.2c12.5-.7 22.5-11.1 22.5-23.8V75.7c0-5.2 4.2-9.4 9.4-9.4s9.4 4.2 9.4 9.4v23.6c0 6.6 5.4 12 12 12H137c7.2 0 13 5.8 13 13v41.5c0 7.2-5.8 13-13 13H81.8c-3 0-5.7-1.5-7.4-4-3-4.6-8.1-7.3-13.6-7.3h-4.5v-48.7zM195 134.4c0 32.9-18 63.2-46.9 79l-31.9 17.4-31.9-17.4c-13-7.1-24.1-17.4-32.2-29.8 2.3-1.9 3.8-4.7 4-7.8 7.6 13.1 18.5 23.8 31.8 31l28.3 15.4 28.3-15.4c26.5-14.5 43-42.2 43-72.4V77.5H180v56.9c0 27.4-15 52.7-39.1 65.8l-24.7 13.5-24.7-13.5c-10.6-5.8-19.4-13.9-26.1-23.8 1 .7 2 1.5 2.7 2.6 3 4.6 8.1 7.3 13.6 7.3H137c11.3 0 20.5-9.2 20.5-20.5v-41.5c0-11.3-9.2-20.5-20.5-20.5h-27.5c-2.5 0-4.5-2-4.5-4.5V75.7c0-9.3-7.6-16.9-16.9-16.9s-16.9 7.6-16.9 16.9V95c0 8.6-6.6 15.5-15 16.2 0-3.3-1.5-6.2-3.7-8.2V43.4c21.8-1.3 43.2-5.8 63.8-13.3 20.5 7.5 42 11.9 63.8 13.3v4.2h7.5V36.2L184 36c-22.7-1-45-5.6-66.4-13.5l-1.3-.5-1.3.5c-21.4 8-43.7 12.5-66.4 13.6l-3.6.1V100h-7.5V28.8h.9c26.8 0 53-4.9 77.9-14.7 24.9 9.8 51.1 14.7 77.9 14.7h.9l-.1 105.6zm0 0"/><path class="st1" d="M180 62.5h7.5V70H180zM15 163.8h26.3v7.5H15z"/></svg>