<svg id="Layer_1" xmlns="http://www.w3.org/2000/svg" viewBox="-431 157.7 545 500.5"><style>.st0{fill:#333}.st1{fill:#92c54e}</style><path class="st0" d="M-155.3 337.1c-9.9-26.5-19.7-67.7-19.7-75.4 0-60.3-40.4-104-96-104s-96 43.7-96 104c0 11-7.1 60.2-29.7 93-24.7 35.9-34.3 63.7-34.3 99C-431 538-362 624-257 613m-158-159.3c0-32.2 8.5-56.6 31.5-89.9 24.5-35.6 32.5-88 32.5-102.1 0-51 33.6-88 80-88s80 37 80 88c0 14.1 9.1 68.1 33.6 103.7 23 33.4 30.4 56.1 30.4 88.3 0 79.4-61.9 144-141.3 144S-415 533.1-415 453.7zM-257 613c81.7-7.1 146-75.8 146-159.3 0-35.4-9.6-63.1-34.3-99-3.8-5.5-7.1-11.4-10-17.5"/><path class="st1" d="M-271 578c-70.6 0-128-57.4-128-128 0-28.6 7.8-50.5 28.7-80.9C-343.4 330-335 274-335 258c0-42.4 26.3-72 64-72s64 29.6 64 72c0 16 8.4 72 35.3 111.1 20.9 30.4 28.7 52.3 28.7 80.9 0 70.6-57.4 128-128 128z"/><path class="st0" d="M-191 450c0-44.1-35.9-80-80-80s-80 35.9-80 80 35.9 80 80 80 80-35.9 80-80zm-144 0c0-35.3 28.7-64 64-64s64 28.7 64 64-28.7 64-64 64-64-28.7-64-64z"/><path class="st0" d="M-223 450h-16c0 17.6-14.4 32-32 32v16c26.5 0 48-21.5 48-48zm337-105.4l-9.3-2.7c-17.7-5.2-43.1-.4-60.5 6.4.5-1.1 1.2-2.2 1.6-3.3 7.7-19 6-48.4.5-66.3l-2.9-9.5-8.6 4.9c-16.4 9.3-37.7 28.2-45.7 47.9-.5 1.1-.8 2.4-1.2 3.5-7.9-17.5-22.6-38-39-46.7l-8.6-4.5-2.8 9.3c-3.8 12.4-7.1 36-3.2 55.3-10 .5-18.6 3-32.5 8.9-19.9 8.4-34.1 25.5-37.9 45.6l15.7 7.1c2.8-14.9 13.5-31.7 28.5-38 14.2-6 21.3-7.9 31.7-7.7 8.8 18.4 21.3 31.7 35.6 37.4l7.4 3 3-7.4c.4-1 .9-2.3 1.4-3.7.5 1.7 1.1 3.4 1.7 4.9l3.1 7.4 7.4-3.1c1.5-.6 3.1-1.5 4.6-2.4-.6 1.3-1.1 2.6-1.6 3.6l-3 7.4 7.4 3c14.3 5.8 32.5 4.9 51.6-2.2 8.5 8.4 13.5 18.6 17.4 27.6 11.9 27.8 11 63.1-2.3 89.9C53.6 560.5.2 608.9-48 630.5c-28.5 12.9-52.8 15.1-68.1 6.2-14.5-8.4-23.1-16.9-27.3-26.6-5.8-13.6-8.6-30.2-9.4-55.5l-15.8 6.1c.7 19.3 2.2 36.1 10.5 55.7 5.6 13.1 16.4 24 34 34.2 19.3 11.2 46.5 9.9 78.7-3.7 1.3-.6 2.6-1.1 4-1.7 52-23.3 107.6-74 129.4-117.7 15.3-30.9 16.4-71.4 2.7-103.4-4-9.2-9.1-19.5-17.3-28.9 15.6-10.8 30-29.7 36.3-42l4.3-8.6zm-140 28.6c-8.5-6.1-16-16.2-21.6-29.5-4.8-11.3-4.4-30-2-44.3 9.9 9 19 23.1 24.1 35 5.4 12.8 2.5 28.6-.5 38.8zM3.9 328c5-12.3 17.4-25.2 29.6-34 2.5 14.7 2.3 33.2-2.5 45-5.3 13.1-18.5 27.3-30 35.1-2.8-13.6-2.4-33.1 2.9-46.1zm53.3 58.2c-13.3 5.6-25.8 7.7-36.1 6.2 4.9-9.4 13.8-22.8 26.7-28.2 11.6-4.9 28.2-8.7 41.6-8.3-8.2 11.7-20.9 25.5-32.2 30.3z"/><path transform="rotate(-22.96 -67.676 604.128)" class="st0" d="M-75.7 596.1h16v16h-16z"/><path transform="rotate(-22.96 -86.654 620.856)" class="st0" d="M-94.7 612.9h16v16h-16z"/><path transform="rotate(-22.96 -19.234 574.916)" class="st0" d="M-27.2 566.9h16v16h-16z"/><path transform="rotate(-22.96 .868 540.335)" class="st0" d="M-7.1 532.3h16v16h-16z"/><path transform="rotate(-22.96 33.454 535.218)" class="st0" d="M25.5 527.2h16v16h-16z"/><path transform="rotate(-22.96 50.435 493.27)" class="st0" d="M42.4 485.3h16v16h-16z"/><path transform="rotate(-22.96 -118.114 608.12)" class="st0" d="M-126.1 600.1h16v16h-16z"/></svg>