<svg id="Layer_1" xmlns="http://www.w3.org/2000/svg" viewBox="-49 141 512 512"><style>.st0{fill:#92c54e}.st1{fill:#333}</style><path class="st0" d="M335.3 516.8c-22.1 0-40-17.9-40-40v-8c0-13.2-10.8-24-24-24s-24 10.8-24 24v8c0 22.1-17.9 40-40 40s-40-17.9-40-40v-8c0-13.2-10.8-24-24-24s-24 10.8-24 24v8c0 22.1-17.9 40-40 40s-40-17.9-40-40v-8c0-13.2-10.8-24-24-24s-24 10.8-24 24h-16c0-22.1 17.9-40 40-40s40 17.9 40 40v8c0 13.2 10.8 24 24 24s24-10.8 24-24v-8c0-22.1 17.9-40 40-40s40 17.9 40 40v8c0 13.2 10.8 24 24 24s24-10.8 24-24v-8c0-22.1 17.9-40 40-40s40 17.9 40 40v8c0 13.2 10.8 24 24 24s24-10.8 24-24v-8c0-22.1 17.9-40 40-40s40 17.9 40 40h-16c0-13.2-10.8-24-24-24s-24 10.8-24 24v8c0 22-18 40-40 40zm34.5-168c3.5-8.3 5.5-17.2 5.5-26.4v-1.9c0-37.4-30.3-67.7-67.7-67.7-22.6 0-43.8 11.3-56.4 30.2l-43.9 65.8h162.5z"/><path class="st1" d="M380.8 340.8c1.6-6.1 2.4-12.2 2.4-18.4v-1.8c0-19.7-7.6-37.6-20-51.1 14.4-9.2 33.8-7.5 46.3 5l8 8 11.3-11.3-8-8c-10.2-10.2-23.7-15.4-37.1-15.5l5.1-5.1c14.5-14.5 38.2-14.5 52.7 0l11.3-11.3c-10.2-10.2-23.7-15.4-37.1-15.6l5.1-5.1c7.9-7.9 12.3-18.5 12.3-29.7s-4.4-21.7-12.3-29.7l-11.3 11.3c4.9 4.9 7.6 11.4 7.6 18.3s-2.7 13.4-7.6 18.3l-5.1 5.1c-.1-13.5-5.3-26.9-15.5-37.1l-8-8-11.3 11.3 8 8c14.5 14.5 14.5 38.2 0 52.7l-5.1 5.1c-.1-13.5-5.3-26.9-15.5-37.1l-8-8-11.3 11.3 8 8c12.9 12.9 14.3 32.9 4.3 47.4-12.1-8.2-26.7-13-42.4-13-25.4 0-48.9 12.6-63 33.7L203 340.8h-11.7v-32.5c28.6-3.4 48-25.2 48-55.5 0-17.5-7.3-28-13.2-33.7 2.6-5 5.2-12.4 5.2-22.3 0-26.9-21.1-48-48-48s-48 21.1-48 48c0 9.9 2.6 17.3 5.2 22.3-5.9 5.7-13.2 16.3-13.2 33.7 0 30.2 19.4 52 48 55.5v32.5h-7.8c-7.7-12.5-18.6-21.7-19.1-22.1l-5.2-4.3-5.1 4.4c-.2.1-1.3 1.2-3 2.8-2.1-21.8-24.1-40.7-26.7-42.9l-5.1-4.2-5.1 4.2c-.5.4-1.6 1.4-3.1 2.8-2.2-21.7-24.1-40.6-26.7-42.8l-5.2-4.3-5.1 4.4c-1.5 1.2-9 7.9-15.7 17.3-2.1-5.5-4.3-7.7-5.5-8.9-16.4-16.4-56.8-18.2-61.4-18.3l-8.6-.3.4 8.6c.2 4.6 2.4 45.4 18.3 61.3 2 2 5 3.7 9.1 5-9.6 6.8-16.4 14.7-17.6 16.2l-4.2 5.1 4.2 5.1c.9 1.1 4.9 5.8 10.9 10.9h-28.7v40c0 83.5 42.6 161.6 112 207.3v56.7h272V588c69.4-45.7 112-123.8 112-207.3v-40h-74.5v.1zm-237.5-88c0-18.2 11-24.5 11.7-24.9 2.2-1.1 3.7-3.3 4.2-5.7.4-2.5-.4-5.1-2.1-6.9-.2-.3-5.7-6.3-5.7-18.4 0-15.5 11.2-32 32-32s32 16.5 32 32c0 12.2-5.5 18.2-5.7 18.3-1.8 1.8-2.6 4.3-2.2 6.8s2 4.7 4.2 5.9c.5.3 11.7 6.5 11.7 24.9 0 25.3-15.8 36.6-32 39.3v-23.3h-16v23.3c-16.3-2.7-32.1-14-32.1-39.3zm114.5 34.6l1.8-2.4c26.3 2.5 51.8 26.6 61.8 37.2l11.6-11c-12.1-12.9-34.2-32.8-59.6-39.9 9.8-6.8 21.6-10.6 34-10.6 32.9 0 59.7 26.8 59.7 59.8v1.8c0 6.2-1 12.4-3 18.4h-41.5c-16.2-17.6-39.1-33.6-56.9-39.6l-5.1 15.2c11.6 3.9 26.4 13.3 39.1 24.4h-77.6l35.7-53.3zm-114.5 48.4c1.4 1.4 2.9 3.1 4.5 4.9H139c1.5-1.8 3-3.5 4.3-4.9zm-40-40.1c6.8 7 16 18.7 16 29.1 0 4.6-1.9 10.1-5.6 16H92.9c-3.7-5.9-5.6-11.4-5.6-16 0-10.3 9.1-22.1 16-29.1zm-39.8 40.6l4.5 4.5h-9.4c1.8-1.6 3.4-3.1 4.9-4.5zm-.2-80.5c6.8 7 15.9 18.7 15.9 29 0 10.1-8.8 21.6-15.6 28.7-1.4-1.4-2.9-2.8-4.7-4.4-5.8-6.8-11.5-15.7-11.5-24 .1-10.3 9.1-22.2 15.9-29.3zM-16 245.4c14.9 1.5 34.3 5.7 41.6 13 1.7 1.7 4.2 8.3 5.2 22.5L12.9 263 1.6 274.4l17 17C2.5 290-1.9 288-3.1 287.1c-7.1-7.2-11.3-26.7-12.9-41.7zm10.2 79.4c7-6.9 18.7-16 29.1-16 8.3 0 17.4 5.9 24.4 11.8 1.5 1.7 2.9 3.2 4.3 4.6-7 6.8-18.5 15.6-28.6 15.6-10.4 0-22.2-9.2-29.2-16zm330.6 256h-13.5v16h16v32h-240v-32h208v-16H89.8c-68.4-40.3-111.5-113.1-114.2-192h431.7v-16h-432v-16h464v16h-16v16H439c-2.8 78.9-45.9 151.7-114.2 192z"/><path class="st1" d="M175.2 196.8h16v56h-16z"/></svg>