<svg id="Layer_1" xmlns="http://www.w3.org/2000/svg" viewBox="22 148.8 369.3 496"><style>.st0{fill:#92c54e}.st1{fill:#333}</style><path class="st0" d="M63.2 236.8h288v368h-288z"/><path class="st1" d="M367.3 196.8h-65.5c-3.3-9.3-12.1-16-22.5-16h-24v-8c0-13.2-10.8-24-24-24h-48c-13.2 0-24 10.8-24 24v8h-24c-10.4 0-19.2 6.7-22.5 16H47.3c-13.2 0-24 10.8-24 24v400c0 13.2 10.8 24 24 24h320c13.2 0 24-10.8 24-24v-400c0-13.3-10.8-24-24-24zm-240 8c0-4.4 3.6-8 8-8h40v-24c0-4.4 3.6-8 8-8h48c4.4 0 8 3.6 8 8v24h40c4.4 0 8 3.6 8 8v24c0 4.4-3.6 8-8 8h-144c-4.4 0-8-3.6-8-8v-24zm248 416c0 4.4-3.6 8-8 8h-320c-4.4 0-8-3.6-8-8v-400c0-4.4 3.6-8 8-8h64v16c0 13.2 10.8 24 24 24h144c13.2 0 24-10.8 24-24v-16h64c4.4 0 8 3.6 8 8v400z"/><path class="st1" d="M207.3 284.8h-104v112h104v-112zm-68 96c0-8.8 7.2-16 16-16s16 7.2 16 16h-32zm52 0h-4c0-17.6-14.4-32-32-32s-32 14.4-32 32h-4v-80h72v80zm47.9 0h64v16h-64zm-136 48h200v16h-200zm144 120h56v16h-56zm-144-80h200v16h-200zm0 40h56v16h-56z"/><path class="st1" d="M162.9 342.8c0-4.2-3.4-7.6-7.6-7.6-4.2 0-7.6 3.4-7.6 7.6s3.4 7.6 7.6 7.6c4.2 0 7.6-3.4 7.6-7.6zm-7.6 1.5c-.8 0-1.5-.7-1.5-1.5s.7-1.5 1.5-1.5 1.5.7 1.5 1.5-.7 1.5-1.5 1.5zm19.9 164.5h16v16h-16zm32 0h16v16h-16z"/></svg>