<svg xmlns="http://www.w3.org/2000/svg" xmlns:xlink="http://www.w3.org/1999/xlink" width="139" height="130" viewBox="0 0 139 130"><defs><path id="a" d="M1322.95 2492.2a3.95 3.95 0 1 1 0 7.91 3.95 3.95 0 0 1 0-7.9zm40.12-51.46a5.4 5.4 0 1 1 0 10.78 5.4 5.4 0 0 1 0-10.78zm67.44 82.23a6.47 6.47 0 1 1 0 12.94 6.47 6.47 0 0 1 0-12.94zm-6.4-1.51l-.07.07a12.01 12.01 0 0 0-6.55 10.93 24.94 24.94 0 0 1-13.51 22.64 24.28 24.28 0 0 1-24.52-.86 45.38 45.38 0 0 0-22.43-7.12c-10.5-.5-21.06-6.68-26.24-16.75a30.61 30.61 0 0 1 2.23-31.7 9.31 9.31 0 0 0-.65-11.71 19.35 19.35 0 0 1 3.16-29.26 19.03 19.03 0 0 1 17.19-2.3 20.1 20.1 0 0 0 20.27-4.82 42.76 42.76 0 0 1 12.73-8.62 43.91 43.91 0 0 1 57.08 19.48 44.17 44.17 0 0 1-18.7 60.02z"/><path id="b" d="M1388 2503c-7.17 0-13-5.83-13-13s5.83-13 13-13a13.01 13.01 0 0 1 11.92 18.2l-1.84-.8A11.01 11.01 0 0 0 1388 2479c-6.07 0-11 4.93-11 11a11.01 11.01 0 0 0 15.58 10l.84 1.82a12.9 12.9 0 0 1-5.42 1.18zm-6-13h-2a8 8 0 0 1 8-8v2a6 6 0 0 0-6 6zm6-15a1 1 0 0 1-1-1v-6a1 1 0 1 1 2 0v6a1 1 0 0 1-1 1zm0 38a1 1 0 0 1-1-1v-6a1 1 0 1 1 2 0v6a1 1 0 0 1-1 1zm-15.56-6.44a1 1 0 0 1-.7-1.71l4.24-4.24a1 1 0 0 1 1.41 1.4l-4.24 4.25a1 1 0 0 1-.7.3zm26.87-26.87a1 1 0 0 1-.7-1.71l4.24-4.24a1 1 0 1 1 1.41 1.41l-4.24 4.24a1 1 0 0 1-.7.3zm-27.31 11.3h-6a1 1 0 1 1 0-2h6a1 1 0 0 1 0 2zm38 0h-6a1 1 0 1 1 0-2h6a1 1 0 1 1 0 2zm-33.31-11.3a1 1 0 0 1-.71-.3l-4.24-4.24a1 1 0 1 1 1.41-1.41l4.24 4.24a1 1 0 0 1-.7 1.7zm26.87 26.87a1 1 0 0 1-.71-.3l-4.24-4.24a1 1 0 1 1 1.41-1.41l4.24 4.24a1 1 0 0 1-.7 1.7z"/></defs><use fill="#4baf50" xlink:href="#a" transform="translate(-1317 -2431)"/><use fill="#fff" xlink:href="#b" transform="translate(-1317 -2431)"/></svg>