<svg xmlns="http://www.w3.org/2000/svg" xmlns:xlink="http://www.w3.org/1999/xlink" width="133" height="128" viewBox="0 0 133 128"><defs><path id="a" d="M817.64 2438a3.53 3.53 0 1 1 .02 7.06 3.53 3.53 0 0 1-.01-7.06zm-54.92 48.12a6.61 6.61 0 0 1 0 13.2 6.61 6.61 0 1 1 0-13.2zm-6.55 17.02a3.16 3.16 0 1 1 0 6.32 3.16 3.16 0 0 1 0-6.32zm106.6 20.76a6.47 6.47 0 1 1-6.47 6.45c0-3.56 2.9-6.45 6.48-6.45zm17.68-31.32a28.93 28.93 0 0 1-20.76 22.22 16.65 16.65 0 0 0-11.93 12.32 11.7 11.7 0 0 1-.37 1.55 40.02 40.02 0 0 1-50.73 27.43c-19.51-6.16-31.3-26.4-26.95-46.36.74-3.6 2-6.97 3.61-10.05 2.65-5.06 1.99-11.22-1.99-15.33a26 26 0 0 1-5.89-26.7 26.39 26.39 0 0 1 30.19-17.02c6.7 1.4 12.15 5.21 15.83 10.2a6.43 6.43 0 0 0 8.25 1.76 11.4 11.4 0 0 1 14.21 2.79c2.72 3.3 7 4.7 11.11 3.66a28.8 28.8 0 0 1 16.64.81 28.82 28.82 0 0 1 18.78 32.72z"/><path id="b" d="M846 2492a3 3 0 0 1-3 3h-3v6.8a6.2 6.2 0 0 1-6.17 6.2h-.96c-.34 1-1.31 1.9-2.9 3.1l-.79.6-.6-.8-.85-1.1a24.4 24.4 0 0 1-1.31-1.8h-5.65c-.67.64-1.52 1.32-2.54 2.1l-.8.6-.6-.8c-.47-.63-.91-1.2-1.31-1.71l-.15-.2h-6.25c-.34 1.02-1.31 1.9-2.89 3.1l-.8.6-.6-.8-.85-1.1c-.53-.68-.98-1.26-1.31-1.8h-1.5a6.2 6.2 0 0 1-6.17-6.2V2495h-3a3 3 0 0 1 0-6h2.98a3.84 3.84 0 0 0-.52-1.64l-1.63-2.73a1.74 1.74 0 0 1 1.49-2.63h16.72a3.47 3.47 0 0 1 3.46-4 3.5 3.5 0 0 1 3.46 4h22.72a1.74 1.74 0 0 1 1.5 2.63l-1.64 2.74c-.3.5-.47 1.05-.52 1.63H843a3 3 0 0 1 3 3zm-32.91-10h2.82a1.5 1.5 0 1 0-2.91-.5c0 .19.04.36.09.5zM795 2493v-2h-3a1 1 0 0 0 0 2zm12.25 14.27l-.01-.16a1.44 1.44 0 0 0-.14-.4l-.02-.02c-.08-.17-.19-.34-.32-.54-.28-.41-.66-.9-1.07-1.43l-.24-.31a14.13 14.13 0 0 0-.97.87l-.06.07a2.98 2.98 0 0 0-.3.41.87.87 0 0 0-.07.16.62.62 0 0 0 .03.5l.06.13c.24.49.76 1.17 1.42 2.02l.25.32c.73-.6 1.38-1.22 1.44-1.62zm10.19-7.87c-1.66 1.3-2.75 2.36-2.86 3.21-.05.32.05.68.24 1.1l.02.03.2.4.05.06.25.4.08.12c.1.13.18.27.29.4l.11.17.33.44.1.14.4.52.23.29.22.28.71.93c.64-.5 1.18-.96 1.63-1.39l.2-.2.26-.27c.32-.36.55-.69.67-1l.03-.07.04-.14c.05-.23.05-.47-.03-.74v-.04l-.1-.28-.03-.07a18.01 18.01 0 0 0-2.15-3.14l-.17-.22-.72-.93zm13.56 7.87l-.01-.15a1.46 1.46 0 0 0-.14-.4l-.02-.04a5.25 5.25 0 0 0-.32-.52l-.02-.04-.45-.62-.09-.1c-.13-.19-.28-.37-.43-.57l-.08-.1-.1-.14-.14-.18a12.32 12.32 0 0 0-.97.87l-.06.07a2.87 2.87 0 0 0-.3.41.86.86 0 0 0-.1.47 1.2 1.2 0 0 0 .11.3c.24.5.77 1.18 1.43 2.04l.24.32c.74-.6 1.4-1.22 1.45-1.62zm7-18.27h.02c.06-.94.32-1.85.8-2.66l1.4-2.34h-45.44l1.4 2.34c.48.8.74 1.72.8 2.66h.02v12.8a4.2 4.2 0 0 0 4.17 4.2h.83l.02-.13v-.1c0-.05.02-.09.03-.13a2.46 2.46 0 0 1 .14-.48l.1-.23c.03-.08.08-.16.13-.23l.13-.22.13-.16c.54-.7 1.37-1.38 2.34-2.12l.8-.6.6.8.76.99.09.1.53.7.06.08.38.51.1.16a9.54 9.54 0 0 1 .6.99l.03.07h4.9l-.1-.14a15.38 15.38 0 0 1-.47-.76l-.16-.29a6.61 6.61 0 0 1-.42-1 4.05 4.05 0 0 1-.14-1.31v-.15c.2-1.47 1.38-2.74 3.48-4.4.3-.25.62-.5.96-.75l.8-.6.6.8c.47.62.91 1.19 1.32 1.7l.14.2.33.42.3.4.38.5c.92 1.23 1.53 2.24 1.72 3.22l.05.33.02.17c.01.2 0 .38-.02.57v.08a3.3 3.3 0 0 1-.13.52l-.02.07c-.05.14-.1.28-.17.42h3.4l.03-.13v-.1c0-.05.02-.09.03-.13.01-.08.03-.17.06-.25l.08-.23.1-.23c.03-.08.08-.16.13-.24l.13-.2.13-.17c.54-.7 1.37-1.38 2.34-2.12l.8-.6.6.8.85 1.1.15.2c.12.15.25.3.36.46l.1.14.36.48.1.15a9.85 9.85 0 0 1 .6 1.01l.03.06h1.1a4.2 4.2 0 0 0 4.18-4.2zm6 3a1 1 0 0 0-1-1h-3v2h3a1 1 0 0 0 1-1zm-27-23.5a3.5 3.5 0 1 1 7 0 3.5 3.5 0 0 1-7 0zm2 0a1.5 1.5 0 1 0 3 0 1.5 1.5 0 0 0-3 0zm13 6.5a2 2 0 1 1 0 4 2 2 0 0 1 0-4zm-27 .98c.55 0 1 .43 1 .98v.04c0 .85-.26 1.66-.76 2.35a1 1 0 0 1-1.62-1.18c.25-.34.38-.75.38-1.17 0-.55.45-1.02 1-1.02zm-4.01-1.98c0-.55.43-1 .98-1h.03c.84 0 1.64.26 2.32.74a1 1 0 0 1-1.16 1.63 1.98 1.98 0 0 0-1.16-.37 1 1 0 0 1-1.01-1zm-2.99 3.02v-.02c0-.84.26-1.65.75-2.33a1 1 0 1 1 1.62 1.16 2 2 0 0 0-.37 1.17 1 1 0 0 1-1 1 1 1 0 0 1-1-.98zm2.83 1.6c.34.25.75.38 1.17.38a1 1 0 0 1 1 1 1 1 0 0 1-1 1c-.85 0-1.65-.26-2.34-.75a1 1 0 0 1 1.17-1.63zM831 2513a1 1 0 0 1-1 1h-26a1 1 0 1 1 0-2h26a1 1 0 0 1 1 1zm5-25a1 1 0 0 1-1 1h-25.93a1 1 0 1 1 0-2H835a1 1 0 0 1 1 1zm-30.17 0a1 1 0 0 1-1 1H800a1 1 0 1 1 0-2h4.83a1 1 0 0 1 1 1z"/></defs><use fill="#4baf50" xlink:href="#a" transform="translate(-752 -2436)"/><use fill="#fff" xlink:href="#b" transform="translate(-752 -2436)"/></svg>