<svg xmlns="http://www.w3.org/2000/svg" xmlns:xlink="http://www.w3.org/1999/xlink" width="26" height="26" viewBox="0 0 26 26"><defs><path id="a" d="M1078 7102.34v10.31c0 3.5-2.85 6.35-6.35 6.35h-10.3a6.35 6.35 0 0 1-6.35-6.35v-10.3c0-3.5 2.85-6.35 6.35-6.35h10.3c3.5 0 6.35 2.84 6.35 6.34zm-2.04 10.31v-10.3c0-2.38-1.93-4.31-4.3-4.31h-10.31a4.31 4.31 0 0 0-4.31 4.3v10.31c0 2.37 1.93 4.3 4.3 4.3h10.31a4.3 4.3 0 0 0 4.3-4.3zm-3.53-5.15a5.93 5.93 0 1 1-11.87-.02 5.93 5.93 0 0 1 11.87.02zm-2.04 0a3.9 3.9 0 1 0-7.79 0 3.9 3.9 0 0 0 7.79 0zm3.34-7.22a1.5 1.5 0 0 1 0 2.12 1.5 1.5 0 0 1-2.55-1.06 1.5 1.5 0 0 1 1.5-1.5c.39 0 .78.16 1.05.44z"/></defs><use fill="#fff" xlink:href="#a" transform="translate(-1053 -7094)"/></svg>