<svg id="Objects" xmlns="http://www.w3.org/2000/svg" viewBox="0 0 225.4 63.8"><style>.st0{fill:#999}.st1{fill:#3f3e43}.st2{fill:#fff}</style><path id="XMLID_157_" class="st0" d="M30 20c-1.7 0-3 1.4-3 3v-8.1c0-1.7-1.4-3-3-3-1.7 0-3 1.4-3 3v-3.2c0-1.7-1.4-3-3-3-1.7 0-3 1.4-3 3v6.6c0-1.7-1.4-3-3-3-1.7 0-3 1.4-3 3v15.8C9 30.7 6.3 28 2.9 28v20c0 8.4 6.8 15.2 15.2 15.2 8.4 0 15.2-6.8 15.2-15.2V23c-.3-1.6-1.7-3-3.3-3z"/><path class="st1" d="M29.8 16.2c-.8 0-1.6.2-2.2.6v-5c0-2.3-1.9-4.2-4.2-4.2-.8 0-1.6.2-2.2.6-.1-2.2-2-4-4.2-4-2.3 0-4.2 1.9-4.2 4.2v3.4c-.6-.4-1.4-.6-2.2-.6-2.3 0-4.2 1.9-4.2 4.2V27C5 25.5 3.1 24.6 1 24.6c-.6 0-1 .4-1 1v21.1c0 9.4 7.7 17.1 17.1 17.1s17.1-7.7 17.1-17.1V20.3c-.2-2.2-2.1-4.1-4.4-4.1zm-28 30.6v-20c2.5.5 4.4 2.7 4.4 5.3 0 .6.4 1 1 1s1-.4 1-1V15.4c0-1.2 1-2.2 2.2-2.2s2.2 1 2.2 2.2v16.5c0 .6.4 1 1 1s1-.4 1-1V8.5c0-1.2 1-2.2 2.2-2.2s2.2 1 2.2 2.2V32c0 .6.4 1 1 1s1-.4 1-1V11.8c0-1.2 1-2.2 2.2-2.2s2.2 1 2.2 2.2v20.1c0 .6.4 1 1 1s1-.4 1-1V20.3c0-1.2 1-2.2 2.2-2.2s2.2 1 2.2 2.2v26.2c0 7.4-6 13.4-13.3 13.4C12.7 59.9 8 55.2 8 49.4c0-4.5 3.7-8.2 8.2-8.2 3.5 0 6.4 2.9 6.4 6.4 0 2.7-2.2 4.9-4.9 4.9-2.1 0-3.7-1.7-3.7-3.7 0-1.5 1.2-2.8 2.8-2.8 1.1 0 2 .9 2 2 0 .8-.6 1.4-1.4 1.4-.5 0-.9-.4-.9-.9 0-.6-.4-1-1-1s-1 .4-1 1c0 1.6 1.3 2.9 2.9 2.9 1.9 0 3.4-1.5 3.4-3.4 0-2.2-1.8-4-4-4-2.6 0-4.8 2.1-4.8 4.8 0 3.2 2.6 5.7 5.7 5.7 3.8 0 6.9-3.1 6.9-6.9 0-4.6-3.8-8.4-8.4-8.4C10.6 39.2 6 43.8 6 49.4c0 6.7 5.2 12.1 11.8 12.5h-1c-8.2 0-15-6.8-15-15.1z"/><path class="st2" d="M57.4 30.8c0 2.1-.6 3.7-1.8 4.9-1.2 1.1-2.9 1.7-5.1 1.7h-3.6V24.5h4c2 0 3.6.6 4.8 1.7 1.2 1.1 1.7 2.6 1.7 4.6zm-2.2.1c0-3.1-1.4-4.6-4.3-4.6h-1.8v9.3h1.5c3.1 0 4.6-1.6 4.6-4.7zm12.3 6.5h-7.3V24.5h7.3v1.8h-5.2v3.5h4.8v1.8h-4.8v4h5.2v1.8zm10 0h-7.2V24.5h7.3v1.8h-5.2v3.5h4.8v1.8h-4.8v4h5.2v1.8h-.1zm11.3-9c0 1.3-.4 2.4-1.3 3.1-.9.7-2.1 1.1-3.8 1.1h-1.3v4.8h-2.1V24.5H84c1.6 0 2.8.3 3.6 1 .8.7 1.2 1.6 1.2 2.9zm-6.4 2.4h1.1c1.1 0 1.9-.2 2.4-.6s.8-1 .8-1.8c0-.7-.2-1.3-.7-1.7s-1.2-.5-2.1-.5h-1.5v4.6zm19.4 0c0 2.1-.6 3.7-1.8 4.9-1.2 1.1-2.9 1.7-5.1 1.7h-3.6V24.5h4c2 0 3.6.6 4.8 1.7s1.7 2.6 1.7 4.6zm-2.2.1c0-3.1-1.4-4.6-4.3-4.6h-1.8v9.3H95c3.1 0 4.6-1.6 4.6-4.7zm12.3 6.5h-7.3V24.5h7.3v1.8h-5.2v3.5h4.8v1.8h-4.8v4h5.2v1.8zm10.1-3.5c0 1.1-.4 2-1.2 2.7s-2 1-3.4 1-2.6-.2-3.6-.7v-2c.6.3 1.2.5 1.9.7s1.3.2 1.8.2c.8 0 1.4-.2 1.8-.5s.6-.7.6-1.3c0-.5-.2-.9-.5-1.2-.3-.3-1.1-.7-2.3-1.2-1.2-.5-2-1-2.5-1.6s-.7-1.3-.7-2.2c0-1.1.4-1.9 1.1-2.5s1.8-.9 3.1-.9c1.2 0 2.5.3 3.7.8l-.7 1.7c-1.1-.5-2.2-.7-3.1-.7-.7 0-1.2.1-1.5.4-.4.3-.5.7-.5 1.2 0 .3.1.6.2.9.1.2.4.5.7.7.3.2.9.5 1.7.8.9.4 1.6.8 2.1 1.1s.8.7 1 1.2c.2.5.3.8.3 1.4zm2.5 3.5V24.5h2.1v12.8h-2.1v.1zm10.8-7h4.7v6.5c-.8.3-1.5.4-2.2.5-.7.1-1.5.2-2.3.2-1.9 0-3.4-.6-4.5-1.7-1.1-1.2-1.6-2.8-1.6-4.9s.6-3.7 1.8-4.9c1.2-1.2 2.8-1.8 4.9-1.8 1.3 0 2.6.3 3.8.8l-.7 1.7c-1-.5-2.1-.7-3.1-.7-1.4 0-2.5.4-3.3 1.3-.8.9-1.2 2-1.2 3.5 0 1.6.4 2.8 1.1 3.6.7.8 1.8 1.2 3.1 1.2.7 0 1.4-.1 2.2-.3v-3.3h-2.7v-1.7zm18.5 7h-2.6l-6.3-10.2h-.1v.6c.1 1.1.1 2.1.1 3v6.7H143v-13h2.5l6.3 10.2h.1c0-.1 0-.6-.1-1.5s-.1-1.5-.1-2v-6.7h1.9v12.9h.2zm15.5-3.5c0 1.1-.4 2-1.2 2.7-.8.7-2 1-3.4 1s-2.6-.2-3.6-.7v-2c.6.3 1.2.5 1.9.7s1.3.2 1.8.2c.8 0 1.4-.2 1.8-.5.4-.3.6-.7.6-1.3 0-.5-.2-.9-.5-1.2s-1.1-.7-2.3-1.2-2-1-2.5-1.6-.7-1.3-.7-2.2c0-1.1.4-1.9 1.1-2.5.7-.6 1.8-.9 3.1-.9 1.2 0 2.5.3 3.7.8l-.7 1.7c-1.1-.5-2.2-.7-3.1-.7-.7 0-1.2.1-1.5.4-.4.3-.5.7-.5 1.2 0 .3.1.6.2.9.1.2.4.5.7.7s.9.5 1.7.8c.9.4 1.6.8 2.1 1.1s.8.7 1 1.2.3.8.3 1.4zm6.9 3.5h-2.1v-11h-3.8v-1.9h9.7v1.8h-3.8v11.1zM192 24.5v8.3c0 .9-.2 1.8-.6 2.5-.4.7-1 1.3-1.8 1.6-.8.4-1.7.6-2.8.6-1.6 0-2.8-.4-3.7-1.3-.9-.9-1.3-2-1.3-3.5v-8.2h2.1v8.1c0 1.1.2 1.8.7 2.3s1.2.8 2.3.8c2 0 3-1 3-3.1v-8.1h2.1zm13.8 6.3c0 2.1-.6 3.7-1.8 4.9-1.2 1.1-2.9 1.7-5.1 1.7h-3.6V24.5h4c2 0 3.6.6 4.8 1.7 1.2 1.1 1.7 2.6 1.7 4.6zm-2.3.1c0-3.1-1.4-4.6-4.3-4.6h-1.8v9.3h1.5c3.1 0 4.6-1.6 4.6-4.7zm5 6.5V24.5h2.1v12.8h-2.1v.1zm16.9-6.5c0 2.1-.5 3.7-1.6 4.9-1 1.2-2.5 1.7-4.4 1.7s-3.4-.6-4.5-1.7c-1-1.2-1.6-2.8-1.6-4.9s.5-3.8 1.6-4.9c1-1.1 2.5-1.7 4.5-1.7 1.9 0 3.4.6 4.4 1.7s1.6 2.8 1.6 4.9zm-9.8 0c0 1.6.3 2.8 1 3.6.6.8 1.6 1.2 2.8 1.2 1.2 0 2.2-.4 2.8-1.2.6-.8 1-2 1-3.6s-.3-2.8-.9-3.6c-.6-.8-1.6-1.2-2.8-1.2-1.3 0-2.2.4-2.9 1.2-.7.9-1 2.1-1 3.6zM49.9 54.5c-.9 0-1.6-.3-2.2-.9s-.8-1.4-.8-2.4c0-1.1.3-1.9.8-2.5s1.3-.9 2.2-.9c.3 0 .6 0 .9.1s.6.1.7.2l-.3.8c-.2-.1-.4-.2-.7-.2-.3 0-.5-.1-.7-.1-1.3 0-2 .8-2 2.5 0 .8.2 1.4.5 1.8s.8.6 1.4.6c.5 0 1.1-.1 1.6-.3v.9c-.2.3-.7.4-1.4.4zm7.1-.1l-.2-.9c-.3.4-.6.7-1 .8-.4.1-.7.2-1.2.2-.6 0-1.1-.2-1.5-.5s-.5-.8-.5-1.4c0-1.3 1-2 3.1-2h1.1v-.4c0-.5-.1-.9-.3-1.1-.2-.2-.6-.4-1-.4-.5 0-1.1.2-1.8.5l-.3-.7c.3-.2.7-.3 1-.4s.8-.1 1.1-.1c.8 0 1.3.2 1.7.5s.6.9.6 1.6v4.4H57v-.1zm-2.2-.7c.6 0 1.1-.2 1.4-.5s.5-.8.5-1.4v-.6h-1c-.8 0-1.3.1-1.7.4s-.5.5-.5 1c0 .4.1.6.3.8.2.2.6.3 1 .3zm5.9.7h-1v-9.1h1v9.1zm10.3 0v-4.2c0-.5-.1-.9-.3-1.2-.2-.3-.6-.4-1-.4-.6 0-1.1.2-1.3.5-.2.3-.4.9-.4 1.6v3.6h-1v-4.2c0-.5-.1-.9-.3-1.2-.2-.3-.6-.4-1-.4-.6 0-1.1.2-1.3.5-.2.3-.4 1-.4 1.8v3.4h-1v-6.4h.8l.2.9c.2-.3.4-.6.8-.7s.7-.3 1.1-.3c1 0 1.7.4 2 1.1.2-.3.5-.6.8-.8s.8-.3 1.2-.3c.7 0 1.3.2 1.6.6.3.4.5 1 .5 1.8v4.2l-1 .1zm11.3 0l-1.2-3.8c-.1-.2-.2-.8-.4-1.6-.2.7-.3 1.2-.4 1.6l-1.2 3.8H78L76.2 48h1c.4 1.6.7 2.8.9 3.7.2.9.3 1.4.4 1.7 0-.2.1-.5.2-.9s.2-.6.2-.8l1.2-3.7h1.1l1.1 3.7c.2.7.4 1.2.4 1.7 0-.1.1-.4.1-.7s.5-1.9 1.2-4.7h1l-1.8 6.4h-.9zm6.8.1c-.9 0-1.7-.3-2.2-.9s-.8-1.4-.8-2.4.3-1.9.8-2.5 1.2-.9 2.1-.9c.8 0 1.4.3 1.9.8s.7 1.2.7 2.1v.6h-4.4c0 .8.2 1.3.6 1.7s.9.6 1.5.6c.7 0 1.4-.1 2.1-.4v.9c-.3.1-.7.3-1 .3s-.9.1-1.3.1zm-.3-5.9c-.5 0-.9.2-1.2.5-.3.3-.5.8-.5 1.4h3.4c0-.6-.1-1.1-.4-1.4s-.8-.5-1.3-.5zm7.3-.8c.8 0 1.5.3 2 .9s.7 1.4.7 2.4-.2 1.9-.7 2.5-1.1.9-2 .9c-.4 0-.8-.1-1.1-.2s-.6-.4-.9-.7H94l-.2.8h-.7v-9.1h1v3.5c.4-.6 1.1-1 2-1zm-.1.9c-.7 0-1.1.2-1.4.6s-.4 1-.4 1.9.2 1.5.5 1.9c.3.4.8.6 1.4.6.6 0 1-.2 1.3-.7s.4-1.1.4-1.9-.1-1.5-.4-1.9-.8-.5-1.4-.5zm11.7 3.9c0 .6-.2 1.1-.7 1.4s-1.1.5-1.9.5c-.9 0-1.5-.1-2-.4v-.9c.3.2.6.3 1 .4.4.1.7.1 1 .1.5 0 .9-.1 1.2-.2s.4-.4.4-.7c0-.3-.1-.5-.3-.6-.2-.1-.6-.4-1.3-.6-.6-.2-1-.4-1.3-.6-.3-.2-.4-.4-.6-.6s-.2-.5-.2-.8c0-.5.2-.9.6-1.2s1-.5 1.8-.5c.7 0 1.4.1 2 .4l-.3.8c-.6-.3-1.2-.4-1.8-.4-.5 0-.8.1-1 .2-.2.1-.4.3-.4.6 0 .2 0 .3.1.4.1.1.2.2.4.3.2.1.6.3 1.1.5.8.3 1.3.6 1.5.8.2.2.7.7.7 1.1zm7.2-1.4c0 1-.3 1.9-.8 2.5s-1.3.9-2.2.9c-.6 0-1.1-.1-1.5-.4-.4-.3-.8-.7-1-1.2-.2-.5-.4-1.1-.4-1.8 0-1 .3-1.9.8-2.4s1.3-.9 2.2-.9c.9 0 1.6.3 2.1.9s.8 1.3.8 2.4zm-4.9 0c0 .8.2 1.4.5 1.9s.8.6 1.4.6c.6 0 1.1-.2 1.5-.6.4-.4.5-1.1.5-1.9s-.2-1.4-.5-1.9-.8-.6-1.5-.6c-.6 0-1.1.2-1.4.6s-.5 1-.5 1.9zm7.5 3.2h-1v-9.1h1v9.1zm3-6.4v4.2c0 .5.1.9.4 1.2.3.3.6.4 1.1.4.7 0 1.2-.2 1.5-.6.3-.4.5-1 .5-1.8V48h1v6.4h-.8l-.1-.9h-.1c-.2.3-.5.6-.8.7s-.8.3-1.2.3c-.8 0-1.4-.2-1.8-.6s-.6-1-.6-1.8v-4.2l.9.1zm8.5 5.7h.5c.2 0 .3-.1.4-.1v.7c-.1.1-.3.1-.5.1h-.6c-1.2 0-1.9-.7-1.9-2v-3.8h-.9v-.5l.9-.4.4-1.4h.6v1.5h1.9v.8h-1.9v3.8c0 .4.1.7.3.9s.5.4.8.4zm2.1-7.5c0-.2.1-.4.2-.5.1-.1.2-.2.4-.2s.3.1.4.2c.1.1.2.3.2.5s-.1.4-.2.5c-.1.1-.2.2-.4.2s-.3-.1-.4-.2c-.1-.1-.2-.3-.2-.5zm1.1 8.2h-1V48h1v6.4zm7.6-3.2c0 1-.3 1.9-.8 2.5s-1.3.9-2.2.9c-.6 0-1.1-.1-1.5-.4-.4-.3-.8-.7-1-1.2-.2-.5-.4-1.1-.4-1.8 0-1 .3-1.9.8-2.4s1.3-.9 2.2-.9c.9 0 1.6.3 2.1.9s.8 1.3.8 2.4zm-4.9 0c0 .8.2 1.4.5 1.9s.8.6 1.4.6c.6 0 1.1-.2 1.5-.6.4-.4.5-1.1.5-1.9s-.2-1.4-.5-1.9-.8-.6-1.5-.6c-.6 0-1.1.2-1.4.6s-.5 1-.5 1.9zm11 3.2v-4.2c0-.5-.1-.9-.4-1.2s-.6-.4-1.1-.4c-.7 0-1.2.2-1.5.5s-.5 1-.5 1.8v3.4h-1v-6.4h.9l.2.9c.2-.3.5-.6.8-.7.3-.1.8-.3 1.2-.3.8 0 1.4.2 1.7.6s.6 1 .6 1.8v4.2h-.9zm7.1-1.8c0 .6-.2 1.1-.7 1.4s-1 .5-1.9.5c-.9 0-1.5-.1-2-.4v-.9c.3.2.6.3 1 .4.4.1.7.1 1 .1.5 0 .9-.1 1.2-.2.3-.1.4-.4.4-.7 0-.3-.1-.5-.3-.6s-.6-.4-1.3-.6c-.6-.2-1-.4-1.3-.6-.3-.2-.4-.4-.6-.6s-.2-.5-.2-.8c0-.5.2-.9.6-1.2.4-.3 1-.5 1.8-.5.7 0 1.4.1 2 .4l-.3.8c-.6-.3-1.2-.4-1.8-.4-.5 0-.8.1-1 .2-.2.1-.4.3-.4.6 0 .2 0 .3.1.4.1.1.2.2.4.3s.6.3 1.1.5c.8.3 1.3.6 1.5.8.2.2.7.7.7 1.1z"/></svg>