<svg xmlns="http://www.w3.org/2000/svg" xmlns:xlink="http://www.w3.org/1999/xlink" width="26" height="26" viewBox="0 0 26 26"><defs><path id="a" d="M1178.2 35.57l-1.25-1.26a3.43 3.43 0 0 1 .88-5.49l3.57-1.83c.87-.46 2-.3 2.72.37l.42.38c.4.37 1.03.46 1.52.2a6.51 6.51 0 0 0 2.82-2.82c.25-.5.17-1.11-.21-1.52l-.38-.42a2.4 2.4 0 0 1-.37-2.73l1.83-3.58a3.43 3.43 0 0 1 5.15-1.17l1.08.83a5.08 5.08 0 0 1 1.74 5.6 23.23 23.23 0 0 1-14.24 14.66 5.03 5.03 0 0 1-5.29-1.22zm13.39-17.75l-1.83 3.57a.34.34 0 0 0 .05.39l.38.42a3.43 3.43 0 0 1 .52 3.87 8.56 8.56 0 0 1-3.7 3.71 3.46 3.46 0 0 1-3.87-.52l-.41-.38c-.07-.06-.25-.13-.39-.06l-3.56 1.84a1.38 1.38 0 0 0-.36 2.2l1.24 1.26c.8.8 2.06 1.1 3.13.72a21.14 21.14 0 0 0 12.97-13.35 3 3 0 0 0-1.03-3.31l-1.08-.83a1.37 1.37 0 0 0-2.06.47z"/></defs><use fill="#4baf50" xlink:href="#a" transform="translate(-1174 -13)"/></svg>