<svg xmlns="http://www.w3.org/2000/svg" xmlns:xlink="http://www.w3.org/1999/xlink" width="20" height="25" viewBox="0 0 20 25"><defs><path id="a" d="M606.97 28.69l-5.41 8.52a1.69 1.69 0 0 1-2.85 0l-5.41-8.52a8.35 8.35 0 0 1-1.3-4.5 8.2 8.2 0 0 1 8.13-8.27 8.2 8.2 0 0 1 8.14 8.28c0 1.65-.48 3.2-1.3 4.49zm-6.84-10.7a6.16 6.16 0 0 0-6.1 6.2c0 1.2.34 2.37.98 3.37l5.12 8.08 5.13-8.08c.64-1 .97-2.16.97-3.36a6.16 6.16 0 0 0-6.1-6.21zm0 9.66a3.42 3.42 0 0 1-3.39-3.45c0-1.9 1.52-3.45 3.4-3.45a3.42 3.42 0 0 1 3.38 3.45c0 1.9-1.51 3.45-3.39 3.45zm0-4.83c-.74 0-1.35.62-1.35 1.38 0 .76.6 1.38 1.35 1.38.75 0 1.36-.62 1.36-1.38 0-.76-.6-1.38-1.36-1.38z"/></defs><use fill="#4baf50" xlink:href="#a" transform="translate(-590 -14)"/></svg>