<svg xmlns="http://www.w3.org/2000/svg" xmlns:xlink="http://www.w3.org/1999/xlink" width="22" height="26" viewBox="0 0 22 26"><defs><path id="a" d="M1153.07 7112.82h-1.25v-.73c0-.33.27-.6.6-.6h.07c.33 0 .6.27.6.6zm-4.11-1.1v3.57c0 .27-.26.48-.58.48-.32 0-.58-.21-.58-.48v-3.56c0-.27.26-.48.58-.48.32 0 .58.21.58.48zm7.04-2.47v6.79c0 1.62-1.4 2.96-3.1 2.96h-12.8a3.05 3.05 0 0 1-3.1-2.96v-6.79c0-1.62 1.29-2.25 3-2.25h13c1.7 0 3 .63 3 2.25zm-15 7.75v-7h2v-1h-5v1h2v7zm4.71-6.3l-.71.3v4c0 .55-.58.34-.61.43-.1.3-.2 1.14-.39.57-.03-.1 0-.48 0-1v-4h-1v3c0 .58-.02 1.8 0 2 .03.34-.32.77 0 1 1.47-.13 1.71-.39 2-1v1h1v-6zm4.23 4.36v-3.17c0-1.21-.9-1.94-2.12-.96l.18-1.93h-1v8l.58-.3.1-.5c1.39 1.28 2.26.4 2.26-1.14zm4.13-.42h-.99v.71c0 .3-.25.54-.54.54h-.2a.54.54 0 0 1-.54-.54v-1.47h2.27v-.86c0-.63-.02-1.26-.07-1.62-.16-1.13-1.74-1.32-2.54-.73a1.5 1.5 0 0 0-.56.75c-.11.33-.17.77-.17 1.34v1.9c0 3.14 3.8 2.7 3.34 0zm-5.2-10.8c-.02-.19-.03-.55-.03-1.1v-4.25h1.2v4.91c0 .27.23.49.5.49.26 0 .47-.22.47-.49v-4.91h1.16v6.31h-1.47l.03-.52c-.1.21-.23.37-.37.48a.83.83 0 0 1-.51.16.92.92 0 0 1-.54-.15.9.9 0 0 1-.32-.4 1.86 1.86 0 0 1-.13-.54zm-4.34-3.05c0-.6.05-1.08.15-1.42.1-.34.28-.61.54-.82.26-.2.6-.3 1-.3.34 0 .63.06.87.19.25.13.44.3.57.52.13.21.22.43.27.66.05.22.08.57.08 1.03v1.6c0 .59-.03 1.02-.07 1.29-.05.27-.14.53-.3.77a1.4 1.4 0 0 1-.56.52c-.23.12-.5.17-.8.17a2.2 2.2 0 0 1-.85-.14c-.23-.1-.41-.25-.54-.44-.13-.2-.23-.43-.28-.7a6.9 6.9 0 0 1-.08-1.25v-1.68zm1.15 2.51c0 .36.27.65.59.65.32 0 .58-.29.58-.65v-3.36c0-.36-.26-.65-.58-.65-.32 0-.59.3-.59.65zm-4.08-3.14l-1.74-4.16h1.5l.89 3.09.87-3.08h1.52l-1.64 4.14v4.85h-1.4z"/></defs><use fill="#fff" xlink:href="#a" transform="translate(-1135 -7094)"/></svg>