<svg xmlns="http://www.w3.org/2000/svg" xmlns:xlink="http://www.w3.org/1999/xlink" width="84" height="86" viewBox="0 0 84 86"><defs><path id="a" d="M431.98 4182.09a1.98 1.98 0 1 1 3.9.68 1.98 1.98 0 0 1-3.9-.68zm14.98-77.66a18.1 18.1 0 0 1 11.45 15.2 10.42 10.42 0 0 0 6.3 8.68 25 25 0 1 1-25 42.84 8.25 8.25 0 0 0-9.67-.44 16.3 16.3 0 0 1-17.1.72 16.5 16.5 0 0 1-7.22-20.44 16.4 16.4 0 0 1 8-8.63c1.8-.9 2.63-3 1.99-4.89a7.14 7.14 0 0 1 3.26-8.44 6.8 6.8 0 0 0 3.47-6.45c-.24-3.4.47-6.92 2.3-10.15a18.05 18.05 0 0 1 22.22-8z"/><path id="b" d="M449.58 4107.06a21.2 21.2 0 0 1 16.53 22.46c-.11.91-.23 1.82-.42 2.66a8.6 8.6 0 0 0 2.93 8.46 23.9 23.9 0 0 1 7.92 23.33c-2.6 11.97-14.21 20.11-26.47 18.58a24.31 24.31 0 0 1-10.24-3.75 9.3 9.3 0 0 0-8.83-.63 17.99 17.99 0 0 1-11.7.9 17.7 17.7 0 0 1-13.14-18.83 17.02 17.02 0 0 1 2.94-8.06 6.94 6.94 0 0 0-.22-8.23 13.54 13.54 0 0 1-2.6-10.6 13.57 13.57 0 0 1 15.79-10.96h.05a2.34 2.34 0 0 0 2.68-1.56 21.14 21.14 0 0 1 24.78-13.77zm19.67 19.2a4 4 0 0 1 4.64-3.22 4 4 0 0 1 3.27 4.62 4 4 0 0 1-4.65 3.23 4 4 0 0 1-3.26-4.62zm3.03-9.89c.17-.99 1.13-1.65 2.13-1.47 1 .17 1.67 1.12 1.49 2.11a1.83 1.83 0 0 1-2.13 1.48 1.83 1.83 0 0 1-1.5-2.12zm-60.85-1.67a3.23 3.23 0 0 1 3.75-2.6 3.23 3.23 0 0 1 2.64 3.73 3.23 3.23 0 0 1-3.75 2.6 3.23 3.23 0 0 1-2.64-3.73z"/><path id="c" d="M467 4168.04c0 .53-.43.96-.96.96h-41.55a.96.96 0 1 1 0-1.91h.7a20.12 20.12 0 0 1 9.73-16.25c-.36-.54-.68-1.11-.95-1.7a8.16 8.16 0 0 1-5.89 2.48 8.17 8.17 0 0 1-5.8-2.39.98.98 0 0 1-.12-.15v-.02a.92.92 0 0 1-.04-.05l-.02-.03a1.04 1.04 0 0 1-.06-.17v-.01l-.01-.03-.01-.05-.01-.04a1.16 1.16 0 0 1 0-.1v-.04a.84.84 0 0 1 .02-.23.9.9 0 0 1 .14-.3l.03-.04.03-.03c0-.02.02-.03.03-.04l.02-.02v-.01a.82.82 0 0 1 .05-.04l.03-.02.04-.04.04-.02.04-.03.04-.02.04-.02.05-.02.03-.01.06-.02h.01a3.84 3.84 0 0 0 2.84-3.7v-13.6a10.35 10.35 0 0 1 18.4-6.43 12.46 12.46 0 0 1 13.75 12.37l.01.96a3.83 3.83 0 0 1 0 7.65h-.04c-.16 2.2-.9 4.22-2.06 5.95a20.12 20.12 0 0 1 9.73 16.26h.7c.53 0 .96.42.96.95zm-36.1-2.87h-3.6c-.1.63-.16 1.27-.2 1.92h3.8zm0-8.27a18.14 18.14 0 0 0-3.18 6.36h3.19zm9.3-29.86a10.54 10.54 0 0 0-5.46 9.22v.92c3.87-.33 8.28-2.7 9.6-7.44l.01-.02.02-.05.01-.04a.74.74 0 0 1 .06-.12.9.9 0 0 1 .09-.12l.02-.03.04-.04.03-.03.04-.03.03-.03.04-.02.04-.03.04-.02.04-.02a1.86 1.86 0 0 1 .14-.06h.03l.07-.02h.03l.06-.01h.09a.8.8 0 0 1 .04 0h.1l.04.01.06.01h.01l.02.01.06.02.03.02.05.02.04.02.04.02a.89.89 0 0 1 .11.08l.04.03.03.03.04.04.02.03a.86.86 0 0 1 .06.07c0 .02.02.03.03.05l.02.03a.75.75 0 0 1 .04.1l.01.03.02.05v.02c1.22 4.33 5.66 7.05 9.62 7.44v-.91a10.54 10.54 0 0 0-12.12-10.4h-.04c-1.23.19-2.4.6-3.44 1.17zm-6.98 20.01c-.18-.7-.3-1.42-.36-2.17h-.04a3.83 3.83 0 0 1 0-7.65v-.96c0-4.12 2.02-7.78 5.1-10.04a4.54 4.54 0 0 0-2.72-.44.96.96 0 0 1-.3-1.89 4.97 4.97 0 0 1 .99-.07c1.4 0 2.75.45 3.87 1.29.64-.32 1.31-.59 2.01-.8a8.43 8.43 0 0 0-14.3 6v13.6c0 2.01-1.05 3.83-2.68 4.86a6.26 6.26 0 0 0 8.43-1.73zm1.95-.15l.02.08a10.52 10.52 0 0 0 4.73 6.01l.08.04c1.4.81 2.96 1.29 4.56 1.4h.04l.27.01h.08a11.42 11.42 0 0 0 .64 0h.34l.04-.01c1.6-.11 3.17-.59 4.56-1.4l.08-.04a10.6 10.6 0 0 0 5.18-9.06c0-.53.43-.96.96-.96h.96a1.92 1.92 0 0 0 0-3.83h-.96c-2.44 0-5.11-.82-7.34-2.26-1.34-.87-3-2.27-4.13-4.34a11.89 11.89 0 0 1-3.98 4.33 13.74 13.74 0 0 1-7.52 2.27h-.96a1.92 1.92 0 0 0 0 3.83h.96c.53 0 .96.43.96.96 0 1.03.15 2.02.43 2.97zm11.05 15.3v.96a4.8 4.8 0 0 0 3.83-4.69v-3.06a12.37 12.37 0 0 1-9.57 0v3.06a4.8 4.8 0 0 0 3.83 4.7v-.98a.96.96 0 1 1 1.91 0zm11.49-7.4c-1-.92-2.1-1.75-3.3-2.45-.72.78-1.54 1.48-2.44 2.05v4.07a6.7 6.7 0 0 1-13.4 0v-4.07c-.9-.57-1.73-1.27-2.45-2.05-1.2.7-2.3 1.53-3.3 2.46v12.28h24.89zm1.91 8.46h3.19a18.13 18.13 0 0 0-3.19-6.36zm3.8 3.83a18.1 18.1 0 0 0-.2-1.92h-3.6v1.92zm-31.67-40.36a.96.96 0 0 1-.05-1.35.96.96 0 1 1 1.3 1.4.96.96 0 0 1-1.25-.05z"/></defs><use fill="#4baf50" xlink:href="#a" transform="translate(-401 -4100)"/><use fill="#92c64e" xlink:href="#b" transform="translate(-401 -4100)"/><use fill="#fff" xlink:href="#c" transform="translate(-401 -4100)"/></svg>