<svg xmlns="http://www.w3.org/2000/svg" xmlns:xlink="http://www.w3.org/1999/xlink" width="84" height="86" viewBox="0 0 84 86"><defs><path id="a" d="M433.58 3785.62a1.98 1.98 0 1 1 .68 3.9 1.98 1.98 0 0 1-.68-3.9zm-8.84 71.95a17.96 17.96 0 0 1-2.3-10.15 6.8 6.8 0 0 0-3.47-6.45 7.13 7.13 0 0 1-3.26-8.44 4.01 4.01 0 0 0-1.98-4.89 16.4 16.4 0 0 1-8.01-8.63 16.5 16.5 0 0 1 7.22-20.44 16.3 16.3 0 0 1 17.1.72 8.25 8.25 0 0 0 9.68-.44 25.03 25.03 0 0 1 37.33 8.23 25 25 0 0 1-11.42 34.21c-.3.15-.6.3-.91.4a10.42 10.42 0 0 0-6.3 8.68 18.1 18.1 0 0 1-11.46 15.2 18.06 18.06 0 0 1-22.22-8z"/><path id="b" d="M424.8 3849.17a2.34 2.34 0 0 0-2.68-1.57h-.05a13.57 13.57 0 0 1-15.79-10.95c-.68-3.88.37-7.67 2.6-10.6a6.94 6.94 0 0 0 .22-8.23 17.02 17.02 0 0 1-2.94-8.06 17.7 17.7 0 0 1 13.13-18.84c4.09-1.06 8.2-.61 11.7.91a9.3 9.3 0 0 0 8.84-.63 24.3 24.3 0 0 1 10.24-3.76c12.26-1.52 23.86 6.62 26.47 18.59a23.9 23.9 0 0 1-7.92 23.33 8.6 8.6 0 0 0-2.93 8.46c.2.84.3 1.75.42 2.65a21.21 21.21 0 0 1-16.53 22.47 21.14 21.14 0 0 1-24.78-13.77zm47.7-10.06a4 4 0 0 1 4.66 3.23 4 4 0 0 1-3.27 4.62 4 4 0 0 1-4.64-3.23 4 4 0 0 1 3.26-4.62zm1.27 12.4c1-.18 1.96.48 2.13 1.48.18.99-.5 1.94-1.5 2.11-1 .18-1.95-.48-2.12-1.47-.18-1 .5-1.94 1.5-2.12zm-59.7.06a3.23 3.23 0 0 1 3.75 2.6 3.23 3.23 0 0 1-2.64 3.73 3.23 3.23 0 0 1-3.75-2.6 3.23 3.23 0 0 1 2.64-3.73z"/><path id="c" d="M456.68 3829.25v.46c-.04 1.68-.08 4.22-1.28 6.7l-.07.15-.1.21c-1 2.05-1.78 4.18-2.29 6.37-.25 1.09-.5 3.42-.72 6.93a3.13 3.13 0 0 1-3.1 2.93h-14.24c-1.63 0-3-1.29-3.1-2.93-.14-2.15-.5-4.7-1-6.99a28.38 28.38 0 0 0-2.17-6.65c-1.2-2.5-1.25-5.03-1.28-6.71l-.01-.47v-.66a15.25 15.25 0 0 1 .27-2.58 16.33 16.33 0 0 1 3.04-6.77l.28-.36.13-.17c.76-.96.91-2.1.91-3.76 0-1.16-.22-3.1-.6-5.32a60.17 60.17 0 0 0-1.48-6.4 3.96 3.96 0 0 1 3.75-5.23h16.75c1.29 0 2.45.6 3.2 1.65.76 1.04.96 2.35.56 3.57l-.34 1.13v.01c-.4 1.47-.82 3.39-1.14 5.28a35.7 35.7 0 0 0-.6 5.3c0 1.67.14 2.81.9 3.77l.08.1a47.58 47.58 0 0 1 .82 1.07 16.34 16.34 0 0 1 2.83 9.37zM432.04 3803h19.92l.14-.45a1.82 1.82 0 0 0-1.73-2.4h-16.75a1.82 1.82 0 0 0-1.73 2.4l.15.45zm12.08 13.31c0 .6-.48 1.08-1.07 1.08h-9.15c-.11.58-.3 1.15-.58 1.71l8.68 6.33 8.68-6.33a8.9 8.9 0 0 1-.77-4.15c0-1.3.22-3.05.43-4.42h-16.68a32.8 32.8 0 0 1 .43 4.7h8.96c.6 0 1.07.49 1.07 1.08zm6.58-7.93c.21-1.12.45-2.23.69-3.23H432.6c.24 1 .48 2.1.69 3.23zm-9.77 29.86l-11.48-9.5v.63l.01.31c.03 1.49.07 3.74 1.06 5.8l.18.36c.83 1.7 1.59 4.05 2.17 6.79.52 2.39.9 5.05 1.04 7.3.03.52.46.92.97.92h6.05zm1.07-1.9l12.26-10.15-.01-.08a12.85 12.85 0 0 0-.09-.36l-.03-.16a14.91 14.91 0 0 0-.16-.56l-.04-.14-.08-.23-.04-.12a14.07 14.07 0 0 0-.25-.69l-.05-.11-.1-.23-.05-.13-.1-.2-.06-.15a15 15 0 0 0-.27-.52l-.07-.14a12.07 12.07 0 0 0-.18-.33l-.11-.2-.08-.12-.13-.2-.07-.11a13.22 13.22 0 0 0-.37-.56l-9.3 6.78c-.37.27-.87.27-1.25 0l-9.29-6.77-.06.08-.03.04a8.8 8.8 0 0 0-.29.43l-.06.1-.13.21-.08.13a16.98 16.98 0 0 0-.3.52l-.07.14-.1.19-.07.14-.09.2-.07.13a13.75 13.75 0 0 0-.15.34l-.1.23c0 .04-.02.07-.04.11l-.13.34-.12.35-.04.12-.08.23-.04.14-.06.21-.04.15a14.88 14.88 0 0 0-.18.72l-.01.07zm12.55-7.6l-11.48 9.5v12.61h6.05c.51 0 .94-.4.97-.92.24-3.68.49-6.06.78-7.29a32.1 32.1 0 0 1 2.44-6.81l.1-.21.07-.15c1-2.05 1.03-4.3 1.06-5.8v-.94zm-6.46-12.43a1.07 1.07 0 0 1-1.83.76 1.07 1.07 0 0 1 1.51-1.52 1.01 1.01 0 0 1 .23.35 1.07 1.07 0 0 1 .09.41zm-18.71.68a1.06 1.06 0 0 1-.96.3l-9.02-1.8a1.08 1.08 0 0 1-.55-1.81l1.16-1.16-2.7-2.72a1.08 1.08 0 0 1 0-1.52l3.41-3.43c.42-.42 1.1-.42 1.51 0l2.7 2.72 1.16-1.17a1.06 1.06 0 0 1 1.8.55l1.78 9.08c.07.35-.04.7-.3.96zm-2.11-2.12l-1.09-5.53-.5.5c-.41.42-1.09.42-1.5 0l-2.7-2.71-1.9 1.91 2.7 2.72a1.08 1.08 0 0 1 0 1.52l-.5.5zm39.42-5.07l-2.7 2.72 1.15 1.16a1.08 1.08 0 0 1-.54 1.82l-9.02 1.79a1.06 1.06 0 0 1-.96-.3 1.08 1.08 0 0 1-.3-.96l1.79-9.08a1.06 1.06 0 0 1 1.8-.55l1.16 1.17 2.7-2.72a1.05 1.05 0 0 1 1.5 0l3.42 3.43a1.08 1.08 0 0 1 0 1.52zm-2.27-.76l-1.9-1.91-2.7 2.71c-.41.42-1.09.42-1.5 0l-.5-.5-1.09 5.53 5.5-1.1-.5-.5a1.08 1.08 0 0 1 0-1.51z"/></defs><use fill="#4baf50" xlink:href="#a" transform="translate(-401 -3784)"/><use fill="#92c64e" xlink:href="#b" transform="translate(-401 -3784)"/><use fill="#fff" xlink:href="#c" transform="translate(-401 -3784)"/></svg>