<svg xmlns="http://www.w3.org/2000/svg" xmlns:xlink="http://www.w3.org/1999/xlink" width="136" height="130" viewBox="0 0 136 130"><defs><path id="a" d="M591.06 2499.27a3.94 3.94 0 1 1 .01 7.87 3.94 3.94 0 0 1-.01-7.87zm-35.14-54.61a5.37 5.37 0 1 1-5.38 5.35c0-2.95 2.4-5.35 5.38-5.35zm-74.72 75.03a6.44 6.44 0 0 1 6.45 6.43 6.44 6.44 0 0 1-6.45 6.42 6.44 6.44 0 0 1-6.45-6.42 6.44 6.44 0 0 1 6.45-6.43zm99.67-14.92a30.3 30.3 0 0 1-.71 31.56c-6.1 9.5-17.14 14.63-27.61 14.13a46.43 46.43 0 0 0-22.95 4.93c-7.67 3.85-16.7 3.5-24.45-1.43a24.92 24.92 0 0 1-11.33-23.7c.5-4.57-1.58-9-5.45-11.42h-.07a43.85 43.85 0 0 1-13.05-61.12 43.97 43.97 0 0 1 58.51-13.92 43.89 43.89 0 0 1 11.83 9.71c4.8 5.64 12.4 8.35 19.65 6.64a19.4 19.4 0 0 1 16.85 3.86 19.15 19.15 0 0 1 4.95 23.48 18.9 18.9 0 0 1-4.45 5.79 9.1 9.1 0 0 0-1.72 11.5z"/><path id="b" d="M554 2511h-38a1 1 0 0 1-1-1v-30a1 1 0 1 1 2 0v29h6v-36a2 2 0 0 0-2-2h-8a1 1 0 0 1 0-2h8a4 4 0 0 1 3 1.36 4 4 0 0 1 3-1.36h21a1 1 0 1 1 0 2h-21a2 2 0 0 0-2 2v36h28v-29a1 1 0 1 1 2 0v30a1 1 0 0 1-1 1zm-21-28a1 1 0 0 1-.55-.17l-3-2a1 1 0 0 1 1.1-1.66l2.26 1.5 4.42-5.31a1 1 0 1 1 1.54 1.28l-5 6a1 1 0 0 1-.77.36zm0 10a1 1 0 0 1-.55-.17l-3-2a1 1 0 0 1 1.1-1.66l2.26 1.5 4.42-5.31a1 1 0 0 1 1.54 1.28l-5 6a1 1 0 0 1-.77.36zm0 11a1 1 0 0 1-.55-.17l-3-2a1 1 0 0 1 1.1-1.66l2.26 1.5 4.42-5.31a1 1 0 1 1 1.54 1.28l-5 6a1 1 0 0 1-.77.36zm-21 7a1 1 0 0 1-1-1v-30a1 1 0 1 1 2 0v30a1 1 0 0 1-1 1z"/></defs><use fill="#4baf50" xlink:href="#a" transform="translate(-460 -2431)"/><use fill="#fff" xlink:href="#b" transform="translate(-460 -2431)"/></svg>