<svg xmlns="http://www.w3.org/2000/svg" xmlns:xlink="http://www.w3.org/1999/xlink" width="84" height="86" viewBox="0 0 84 86"><defs><path id="a" d="M1003.58 3785.62a1.98 1.98 0 1 1 .68 3.9 1.98 1.98 0 0 1-.68-3.9zm-8.84 71.95a17.96 17.96 0 0 1-2.3-10.15 6.8 6.8 0 0 0-3.47-6.45 7.13 7.13 0 0 1-3.26-8.44 4.01 4.01 0 0 0-1.98-4.89 16.4 16.4 0 0 1-8.01-8.63 16.5 16.5 0 0 1 7.22-20.44 16.3 16.3 0 0 1 17.1.72 8.25 8.25 0 0 0 9.68-.44 25.03 25.03 0 0 1 37.33 8.23 25 25 0 0 1-11.42 34.21c-.3.15-.6.3-.91.4a10.42 10.42 0 0 0-6.3 8.68 18.1 18.1 0 0 1-11.46 15.2 18.06 18.06 0 0 1-22.22-8z"/><path id="b" d="M994.8 3849.17a2.34 2.34 0 0 0-2.68-1.57h-.05a13.57 13.57 0 0 1-15.79-10.95c-.68-3.88.37-7.67 2.6-10.6a6.94 6.94 0 0 0 .22-8.23 17.02 17.02 0 0 1-2.94-8.06 17.7 17.7 0 0 1 13.13-18.84c4.09-1.06 8.2-.61 11.7.91a9.3 9.3 0 0 0 8.84-.63 24.3 24.3 0 0 1 10.24-3.76c12.26-1.52 23.86 6.62 26.47 18.59a23.9 23.9 0 0 1-7.92 23.33 8.6 8.6 0 0 0-2.93 8.46c.2.84.3 1.75.42 2.65a21.21 21.21 0 0 1-16.53 22.47 21.14 21.14 0 0 1-24.78-13.77zm47.7-10.06a4 4 0 0 1 4.66 3.23 4 4 0 0 1-3.27 4.62 4 4 0 0 1-4.64-3.23 4 4 0 0 1 3.26-4.62zm1.27 12.4c1-.18 1.96.48 2.13 1.48.18.99-.5 1.94-1.5 2.11-1 .18-1.95-.48-2.12-1.47-.18-1 .5-1.94 1.5-2.12zm-59.7.06a3.23 3.23 0 0 1 3.75 2.6 3.23 3.23 0 0 1-2.64 3.73 3.23 3.23 0 0 1-3.75-2.6 3.23 3.23 0 0 1 2.64-3.73z"/><path id="c" d="M1038 3823.33c-.04 5.53-4.77 10.01-10.6 10.01-5.84 0-10.58-4.48-10.6-10.02h-.02l7.66-18.23a2.4 2.4 0 0 1-.44-1.1h-6l-.12.98a3.06 3.06 0 0 1-2.85 2.32l-.03-.3v29l5.33.31a3.4 3.4 0 0 1 3.05 2.27l.97 3.17c.38 1.24-.37 2.26-1.66 2.26h-22.38c-1.3 0-2.05-1.02-1.66-2.26l.97-3.17a3.4 3.4 0 0 1 3.04-2.27l5.34-.3v-29l-.04.29a3.06 3.06 0 0 1-2.85-2.32l-.11-.97h-6c-.08.49-.19.7-.45 1.1l7.64 18.23c-.03 5.53-4.76 10.01-10.6 10.01-5.83 0-10.56-4.48-10.59-10.02l7.64-18.23a3.55 3.55 0 0 1 2.96-5.5c1.54 0 2.85 1 3.33 2.39h5.55l-.15-.66c-.27-1.28.57-2.32 1.87-2.32h10.6c1.3 0 2.13 1.04 1.86 2.32l-.14.66h5.54a3.53 3.53 0 1 1 6.29 3.11l7.63 18.19h.02v.03zm-44.17-20.19c0 .98.8 1.78 1.77 1.78a1.77 1.77 0 0 0 0-3.55c-.98 0-1.77.8-1.77 1.77zm10.4 21.91h-17.26c.87 3.72 4.4 6.51 8.63 6.51 4.22 0 7.76-2.79 8.63-6.5zm-7.08-18.72a3.5 3.5 0 0 1-3.11 0l-7 16.67H1004zM986 3823l.92.28.11-.28zm16.66 15.08c-.52 0-1.2.5-1.36 1l-1.3 2.92h23l-1.31-2.91a1.66 1.66 0 0 0-1.36-1.01zM1013 3836v-29h-3v29zm3.94-35.2c-.01 0-.06-.02-.14-.02h-10.6c-.1 0-.14.02-.15.02l.01.14.78 3.66c.1.45.7.4 1.16.4h7c.46 0 1.05.05 1.15-.4l.78-3.66a.34.34 0 0 0 0-.15zm8.69 2.34c0 .98.8 1.78 1.77 1.78a1.77 1.77 0 0 0 0-3.55c-.98 0-1.77.8-1.77 1.77zm10.4 21.91h-17.26c.87 3.72 4.4 6.51 8.63 6.51 4.22 0 7.76-2.79 8.63-6.5zm-.03-2.05l-7.05-16.67a3.5 3.5 0 0 1-3.11 0L1019 3823z"/></defs><use fill="#4baf50" xlink:href="#a" transform="translate(-971 -3784)"/><use fill="#92c64e" xlink:href="#b" transform="translate(-971 -3784)"/><use fill="#fff" xlink:href="#c" transform="translate(-971 -3784)"/></svg>