<svg xmlns="http://www.w3.org/2000/svg" xmlns:xlink="http://www.w3.org/1999/xlink" width="89" height="89" viewBox="0 0 89 89"><defs><path id="a" d="M1002.03 4246.54a1.98 1.98 0 1 1 1.39-3.7 1.98 1.98 0 0 1-1.4 3.7zm44.23-57.43a17.96 17.96 0 0 1-3.19 9.91 6.8 6.8 0 0 0-.3 7.31 7.13 7.13 0 0 1-1.48 8.93 4.01 4.01 0 0 0-.78 5.22 16.4 16.4 0 0 1 2.5 11.5 16.5 16.5 0 0 1-16.62 13.92 16.3 16.3 0 0 1-14.36-9.33 8.25 8.25 0 0 0-8.55-4.54 25.03 25.03 0 0 1-27.94-26.08 25 25 0 0 1 28.22-23.52c3.84.5 7.6-1.13 9.85-4.27a18.1 18.1 0 0 1 17.6-7.25 18.05 18.05 0 0 1 15.05 18.2z"/><path id="b" d="M1041.93 4196.3c-.24 1.2.4 2.36 1.51 2.73l.05.01a13.57 13.57 0 0 1 8 17.47 13.54 13.54 0 0 1-7.63 7.8 6.94 6.94 0 0 0-4.37 6.97c.19 2.79-.28 5.69-1.57 8.44a17.7 17.7 0 0 1-20.9 9.53 18 18 0 0 1-9.6-6.74 9.3 9.3 0 0 0-7.93-3.95c-3.57.14-7.22-.46-10.73-1.98-11.33-4.93-17.17-17.84-13.32-29.47a23.9 23.9 0 0 1 18.7-16.05 8.6 8.6 0 0 0 6.82-5.8c.26-.82.63-1.66 1-2.5a21.2 21.2 0 0 1 25.65-10.91 21.14 21.14 0 0 1 14.32 24.45zm-46.18-15.62a4 4 0 0 1-2.36-5.14 4 4 0 0 1 5.16-2.32 4 4 0 0 1 2.36 5.14 4 4 0 0 1-5.16 2.32zm5.22-11.31a1.83 1.83 0 0 1-1.08-2.36 1.83 1.83 0 0 1 2.36-1.06 1.83 1.83 0 0 1 1.08 2.35 1.83 1.83 0 0 1-2.36 1.07zm51.42 30.34a3.23 3.23 0 0 1-1.9-4.15 3.23 3.23 0 0 1 4.16-1.87 3.23 3.23 0 0 1 1.9 4.15 3.23 3.23 0 0 1-4.16 1.87z"/><path id="c" d="M1006.85 4186.97a.9.9 0 0 1 .22-.68c.17-.18.4-.29.64-.29h17.96c.24 0 .47.1.63.3a.9.9 0 0 1 .22.67l-2.3 24.9a.87.87 0 0 1-.94.8.88.88 0 0 1-.77-.96l1.75-18.98h-15.15l2.55 27.49a.88.88 0 0 1-.86.97.87.87 0 0 1-.86-.8zm1.8.8l.3 3.19h15.48l.3-3.18zm27.35 34.17c0 1.7-.68 3.63-2.03 5.73-.43.68-.95 1.3-1.54 1.86a.84.84 0 0 1-1.21-.06.91.91 0 0 1 .06-1.26 8 8 0 0 0 1.26-1.52c1.15-1.8 1.74-3.4 1.74-4.75 0-3.77-1.97-6.96-4.3-6.96-1.22 0-2.4.87-3.22 2.39a.86.86 0 0 1-.75.45.86.86 0 0 1-.75-.45c-.83-1.52-2-2.4-3.22-2.4-2.48 0-4.29 2.69-4.29 6.38 0 .3.03.63.09.98a.89.89 0 0 1-.71 1.02.86.86 0 0 1-.99-.73 9.88 9.88 0 0 1 1.57-7.06 5.33 5.33 0 0 1 4.33-2.36c1.12 0 2.19.43 3.11 1.24v-1.8c0-.49.38-.89.86-.89s.86.4.86.9v1.79c.92-.8 2-1.24 3.11-1.24 1.67 0 3.22.95 4.36 2.69a11.13 11.13 0 0 1 1.66 6.05zm-5.27 8.93a3.3 3.3 0 0 1-3.21 2.97l-20.55.16h-.04a5.7 5.7 0 0 1-4.3-1.98 6.07 6.07 0 0 1-1.44-3.3l-8.15 3.39a.83.83 0 0 1-.32.07.86.86 0 0 1-.8-.56.9.9 0 0 1 .48-1.16l5.94-2.47-9.56-.93a.88.88 0 0 1-.78-.97.87.87 0 0 1 .94-.8l10.36 1-3.01-2.63a.91.91 0 0 1-.1-1.25.84.84 0 0 1 1.2-.1l4.13 3.6a5.95 5.95 0 0 1 2.1-2.78 5.63 5.63 0 0 1 4.67-.91l19.97 5c1.6.4 2.65 1.96 2.47 3.65zm-2.87-1.93l-19.98-5a3.95 3.95 0 0 0-3.28.65 4.29 4.29 0 0 0-.7 6.24 4 4 0 0 0 3.06 1.4l20.55-.17c.77 0 1.42-.6 1.5-1.4.1-.79-.4-1.53-1.15-1.72zm-11.53-29.96a2.45 2.45 0 0 1-2.41 2.49 2.45 2.45 0 0 1-2.41-2.49 2.45 2.45 0 0 1 2.4-2.49c1.34 0 2.42 1.12 2.42 2.49zm-1.72 0a.7.7 0 0 0-.7-.71.7.7 0 0 0-.68.71c0 .4.3.71.69.71a.7.7 0 0 0 .69-.71zm.68 8a2.8 2.8 0 0 1 2.76-2.84c.47 0 .86.4.86.88 0 .5-.39.9-.86.9-.57 0-1.03.47-1.03 1.06 0 .59.46 1.07 1.03 1.07.57 0 1.03-.48 1.03-1.07 0-.49.38-.89.86-.89s.86.4.86.9a2.8 2.8 0 0 1-2.75 2.84 2.8 2.8 0 0 1-2.76-2.85z"/></defs><use fill="#4baf50" xlink:href="#a" transform="translate(-970 -4164)"/><use fill="#92c64e" xlink:href="#b" transform="translate(-970 -4164)"/><use fill="#fff" xlink:href="#c" transform="translate(-970 -4164)"/></svg>