<svg xmlns="http://www.w3.org/2000/svg" xmlns:xlink="http://www.w3.org/1999/xlink" width="89" height="89" viewBox="0 0 89 89"><defs><path id="a" d="M1002.03 4055.54a1.98 1.98 0 1 1 1.39-3.7 1.98 1.98 0 0 1-1.4 3.7zm44.23-57.43a17.96 17.96 0 0 1-3.19 9.91 6.8 6.8 0 0 0-.3 7.31 7.13 7.13 0 0 1-1.48 8.93 4.01 4.01 0 0 0-.78 5.22 16.4 16.4 0 0 1 2.5 11.5 16.5 16.5 0 0 1-16.62 13.92 16.3 16.3 0 0 1-14.36-9.33 8.25 8.25 0 0 0-8.55-4.54 25.03 25.03 0 0 1-27.94-26.08 25 25 0 0 1 27.24-23.65c.33.03.67.06.98.13 3.84.5 7.6-1.13 9.85-4.27a18.1 18.1 0 0 1 17.6-7.25 18.05 18.05 0 0 1 15.05 18.2z"/><path id="b" d="M1041.93 4005.3c-.24 1.2.4 2.36 1.51 2.72l.05.02a13.58 13.58 0 0 1 8 17.47 13.54 13.54 0 0 1-7.63 7.8 6.94 6.94 0 0 0-4.37 6.97c.19 2.79-.28 5.69-1.57 8.44a17.7 17.7 0 0 1-20.9 9.53 17.99 17.99 0 0 1-9.6-6.74 9.3 9.3 0 0 0-7.93-3.95c-3.57.14-7.22-.46-10.73-1.98-11.33-4.93-17.17-17.84-13.32-29.47a23.9 23.9 0 0 1 18.7-16.05 8.6 8.6 0 0 0 6.82-5.8c.26-.82.63-1.66 1-2.5a21.2 21.2 0 0 1 25.65-10.91 21.14 21.14 0 0 1 14.32 24.45zm-46.18-15.62a4 4 0 0 1-2.36-5.14 4 4 0 0 1 5.16-2.32 4 4 0 0 1 2.36 5.14 4 4 0 0 1-5.16 2.32zm5.22-11.31a1.83 1.83 0 0 1-1.08-2.36 1.83 1.83 0 0 1 2.36-1.06 1.83 1.83 0 0 1 1.08 2.35 1.83 1.83 0 0 1-2.36 1.07zm51.42 30.34a3.23 3.23 0 0 1-1.9-4.15 3.23 3.23 0 0 1 4.16-1.87 3.23 3.23 0 0 1 1.9 4.15 3.23 3.23 0 0 1-4.16 1.87z"/><path id="c" d="M1042 4018.18v5.57c0 1-.33 1.94-.93 2.65a3.22 3.22 0 0 1-2.45 1.19h-1.39v1.11c0 2-1.74 3.62-3.89 3.62h-1.83v2.05c0 .97-.41 1.9-1.13 2.59a3.9 3.9 0 0 1-2.68 1.04c-1 0-1.96-.37-2.67-1.04a3.56 3.56 0 0 1-1.14-2.59l.11-9.37h-25l.1 9.37c0 .97-.4 1.9-1.13 2.59a3.9 3.9 0 0 1-2.67 1.04c-1.01 0-1.96-.37-2.68-1.04a3.56 3.56 0 0 1-1.14-2.59v-2.05h-2.05a3.8 3.8 0 0 1-2.56-.97 3.33 3.33 0 0 1-1.1-2.45v-1.31h-1.38c-.92 0-1.82-.43-2.45-1.2a4.14 4.14 0 0 1-.94-2.65v-5.54c0-1 .33-1.95.93-2.67a3.23 3.23 0 0 1 2.46-1.19h1.38v-1.31c0-.92.4-1.8 1.1-2.45a3.8 3.8 0 0 1 2.56-.97h2.05v-2.05c0-.96.42-1.9 1.14-2.58a4.05 4.05 0 0 1 5.35 0 3.56 3.56 0 0 1 1.14 2.58L999 4017h25l-.11-9.44c0-.96.41-1.9 1.14-2.58a4.05 4.05 0 0 1 5.35 0 3.57 3.57 0 0 1 1.13 2.58v2.05h1.83c2.15 0 3.9 1.63 3.9 3.62v1.11h1.38c.92 0 1.81.43 2.45 1.19.6.72.93 1.66.93 2.65zm-57.6 7.52h1.37v-9.47h-1.38c-.36 0-.71.19-.99.52-.31.37-.5.9-.5 1.45v5.54c0 .54.19 1.07.5 1.45.28.33.63.5 1 .5zm5.04 4.73l1.56-.43v-18l-1.56-.5c-.48 0-.95.18-1.28.48-.32.28-.49.66-.49 1.05l.33 1.97v11l-.33 2.9c0 .4.17.77.49 1.05.33.3.8.48 1.28.48zm7.76-22.87c0-.45-.19-.88-.54-1.2a2.02 2.02 0 0 0-1.36-.53c-.52 0-1.01.19-1.37.52-.35.33-.54.76-.54 1.21L993 4011v20l.39 3.37c0 .45.2.88.54 1.21.71.67 2.02.67 2.73 0 .35-.33.54-.75.54-1.2zM1024 4023l-.11-3.93h-24.78L999 4023zm6 8v-20l-.4-3.44c0-.45-.18-.88-.53-1.2a2.01 2.01 0 0 0-1.37-.53c-.51 0-1 .19-1.37.52-.34.33-.53.76-.53 1.21v26.81c0 .45.19.88.54 1.21.71.67 2.02.67 2.73 0 .35-.33.54-.75.54-1.2zm5-5v-11l.33-1.77c0-.95-.9-1.73-1.99-1.73l-1.34.5v18l1.34.43c1.1 0 1.99-.78 1.99-1.73zm5.1-7.82c0-.54-.19-1.07-.5-1.44a1.3 1.3 0 0 0-.98-.5h-1.39v9.46h1.39c.36 0 .7-.18.98-.51.31-.37.5-.9.5-1.44z"/></defs><use fill="#4baf50" xlink:href="#a" transform="translate(-970 -3973)"/><use fill="#92c64e" xlink:href="#b" transform="translate(-970 -3973)"/><use fill="#fff" xlink:href="#c" transform="translate(-970 -3973)"/></svg>