<svg xmlns="http://www.w3.org/2000/svg" xmlns:xlink="http://www.w3.org/1999/xlink" width="126" height="124" viewBox="0 0 126 124"><defs><path id="a" d="M1163.96 2499.8c-.77 16.91-14.05 30.82-30.8 32.2-1.45.09-2.91.16-4.3.09a13.78 13.78 0 0 0-12.5 6.95 38.25 38.25 0 0 1-34.56 18.92c-19.59-.77-35.64-16.76-36.63-36.46-.31-6.1.84-11.9 3.07-17.15 2-4.63 1.3-9.88-1.46-14.05a28.69 28.69 0 0 1-4.69-18.16c1.16-13.82 12.3-24.95 26.04-25.88 4.83-.38 9.44.55 13.51 2.4 4.46 2 9.6 1 12.9-2.63 4-4.32 9.68-7.03 15.97-7.03a21.7 21.7 0 0 1 21.66 21.79v.07a3.74 3.74 0 0 0 3.22 3.79 33.77 33.77 0 0 1 28.57 35.15zm-36.1 36.61a6.4 6.4 0 0 1 6.38 6.41 6.4 6.4 0 0 1-6.37 6.41 6.4 6.4 0 0 1-6.37-6.4 6.4 6.4 0 0 1 6.37-6.42zm17.82 9.89a2.93 2.93 0 0 1 2.92 2.93c0 1.63-1.3 2.94-2.92 2.94a2.93 2.93 0 0 1-2.91-2.94c0-1.62 1.3-2.93 2.91-2.93zm-2.68-94.94a5.16 5.16 0 0 1 5.14 5.18c0 2.86-2.3 5.17-5.14 5.17a5.16 5.16 0 0 1-5.15-5.17c0-2.86 2.3-5.18 5.15-5.18zm-58.36-13.36c1.7 0 3.07 1.38 3.07 3.09 0 1.7-1.38 3.09-3.07 3.09a3.08 3.08 0 0 1-3.08-3.1c0-1.7 1.38-3.08 3.08-3.08z"/><path id="b" d="M1126 2490.04h-7.15l-1.91 21.05a1 1 0 0 1-1 .91h-21.88a1 1 0 0 1-.99-1v-15.97a1 1 0 0 1 1-1h8.95a1 1 0 0 1 1 1v8.99a1 1 0 1 1-2 0v-7.99h-6.96V2510h19.98l1.81-19.96h-27.67l1.9 20.87a1 1 0 0 1-1 1.1 1 1 0 0 1-.98-.92l-1.92-21.05h-7.12a1 1 0 0 1-.67-1.74l22.96-20.96a1 1 0 0 1 1.34 0l13.25 12.1v-7.37a1 1 0 1 1 2 0v9.2l7.6 6.94a1 1 0 0 1-.54 1.83zm-43.37-2h40.78l-5.47-4.99a1 1 0 0 1-1-.9l-13.92-12.72zm30.33 7.99H1107a1 1 0 0 1 0-2h5.96a1 1 0 0 1 0 2zm-9.94-11.98c-2.45 0-4.44-1.79-4.44-3.99s1.99-4 4.44-4c2.44 0 4.44 1.8 4.44 4s-2 4-4.44 4zm0-5.99c-1.35 0-2.45.9-2.45 2s1.1 2 2.45 2 2.45-.9 2.45-2-1.1-2-2.45-2z"/></defs><use fill="#4baf50" xlink:href="#a" transform="translate(-1040 -2436)"/><use fill="#fff" xlink:href="#b" transform="translate(-1040 -2436)"/></svg>