<svg xmlns="http://www.w3.org/2000/svg" width="146" height="81.109" viewBox="116.5 155.162 146 81.109"><g fill="#fff"><path d="M207.338 194.011c6.021 0 10.901-5.004 10.901-11.177 0-3.536-1.606-6.682-4.106-8.731a9.985 9.985 0 0 0 .208-2.009c0-.703-.08-1.384-.218-2.045-1.686-1.625-3.929-2.645-6.427-2.645a9.266 9.266 0 0 0-5.428 1.767c-.958-4.106-4.538-7.169-8.837-7.169-3.838 0-7.106 2.44-8.448 5.884a9.001 9.001 0 0 0-3.425-.689c-5.114 0-9.259 4.25-9.259 9.493 0 .409.068.799.117 1.195-3.35 2.004-5.608 5.718-5.608 9.982-.109 1.465.246 2.587.807 3.459 2.009 1.898 4.683 3.067 7.631 3.067 1.398 0 2.731-.273 3.967-.75a11.77 11.77 0 0 0 6.303 1.838c5.481 0 10.1-3.752 11.566-8.885l.771 2.981 2.02 2.224 1.727.534a10.632 10.632 0 0 0 5.738 1.676z"/><path d="M218.24 182.835c0-.684-.077-1.347-.192-1.997-.146-.28-.283-.553-.466-.862-1.736-2.268-4.403-3.752-7.433-3.752a9.266 9.266 0 0 0-5.428 1.767c-.958-4.106-4.538-7.169-8.837-7.169-3.838 0-7.106 2.44-8.448 5.884a9.001 9.001 0 0 0-3.425-.689c-5.114 0-9.259 4.25-9.259 9.493 0 .409.069.799.117 1.195-2.328 1.393-4.107 3.622-4.989 6.277a10.935 10.935 0 0 0 5.366 1.412c1.398 0 2.731-.273 3.967-.75a11.77 11.77 0 0 0 6.303 1.838c5.481 0 10.1-3.752 11.566-8.885l.771 2.981 2.02 2.224 1.727.534a10.618 10.618 0 0 0 5.737 1.676c6.022-.001 10.903-5.005 10.903-11.177z"/><path d="M192.915 201.163v6.431a1.81 1.81 0 0 1-3.618 0v-6.431a1.81 1.81 0 0 1 3.618 0zm8.562-4.228a1.812 1.812 0 0 0-2.402.882l-4.184 9.044a1.81 1.81 0 0 0 3.284 1.52l4.184-9.044a1.81 1.81 0 0 0-.882-2.402zm14.598-23.524c.05-.442.076-.881.076-1.316 0-6.359-5.065-11.531-11.292-11.531-1.538 0-3.039.319-4.435.934-1.778-3.822-5.552-6.336-9.83-6.336-3.923 0-7.455 2.107-9.395 5.489a10.6 10.6 0 0 0-2.478-.295c-6.102 0-11.067 5.07-11.067 11.301 0 .1.003.2.008.298-3.418 2.494-5.498 6.561-5.498 10.879 0 7.371 5.869 13.368 13.084 13.368 1.022 0 2.039-.125 3.039-.373 1.82 3.658 5.043 10.297 5.664 12.321a1.81 1.81 0 0 0 3.46-1.061c-.575-1.874-2.794-6.563-4.497-10.055.856.169 1.728.256 2.605.256 6.119 0 11.591-4.194 13.305-10.198a1.808 1.808 0 1 0-3.479-.993c-1.274 4.459-5.315 7.573-9.827 7.573a10 10 0 0 1-5.338-1.559l-.769-.485-.847.327a9.167 9.167 0 0 1-3.316.629c-5.219 0-9.466-4.374-9.466-9.75 0-3.455 1.812-6.685 4.727-8.429l1.013-.606-.183-1.444c-.031-.23-.067-.459-.067-.698 0-4.237 3.341-7.683 7.449-7.683.92 0 1.842.186 2.74.554l1.703.698.668-1.714c1.12-2.874 3.775-4.732 6.763-4.732 3.373 0 6.283 2.373 7.076 5.77l.616 2.64 2.201-1.582a7.452 7.452 0 0 1 4.372-1.426c4.232 0 7.674 3.55 7.674 7.913 0 .537-.057 1.092-.171 1.647l-.218 1.07.844.692c2.188 1.792 3.443 4.464 3.443 7.331 0 5.165-4.079 9.368-9.092 9.368a8.837 8.837 0 0 1-4.763-1.392 1.808 1.808 0 1 0-1.947 3.049 12.45 12.45 0 0 0 6.71 1.961c7.009 0 12.71-5.825 12.71-12.986-.001-3.596-1.437-6.975-3.975-9.424z"/><path d="M152.162 211.623c-.459 1.023-1.173 1.947-2.148 2.772-.975.825-2.222 1.503-3.745 2.035-1.519.532-3.342.818-5.469.859 1.35 0 2.53.216 3.537.645 1.01.429 1.855 1.009 2.537 1.738a7.185 7.185 0 0 1 1.533 2.526c.343.956.512 1.957.512 3.007a10.567 10.567 0 0 1-1.392 5.176 11.215 11.215 0 0 1-1.738 2.3 10.877 10.877 0 0 1-2.441 1.871c-.936.533-1.989.952-3.162 1.26-1.173.306-2.463.459-3.865.459-.887 0-1.82-.058-2.802-.173a39.57 39.57 0 0 1-5.932-1.177 38.14 38.14 0 0 1-2.74-.88 3.291 3.291 0 0 1-1.012-.429c-.293-.191-.44-.532-.44-1.023 0-2.263.058-4.582.173-6.955.117-2.372.352-4.69.707-6.953a41.662 41.662 0 0 1 1.533-6.474c.668-2.051 1.555-3.89 2.659-5.512.968-.668 1.848-1.003 2.639-1.003.995 0 1.827.56 2.494 1.678a13.82 13.82 0 0 0-1.606 2.823 23.772 23.772 0 0 0-1.115 3.261 34.897 34.897 0 0 0-.726 3.489 61.298 61.298 0 0 0-.44 3.476c-.067.641-.125 1.323-.173 2.046s-.092 1.459-.132 2.208a80.958 80.958 0 0 0-.124 4.377c0 .11.004.26.011.45.007.191.025.389.051.592.027.205.069.392.124.564.053.17.136.297.244.378.832.274 1.726.505 2.68.696.956.191 1.91.286 2.864.286 1.159 0 2.282-.14 3.374-.42a8.577 8.577 0 0 0 2.904-1.328 6.765 6.765 0 0 0 2.035-2.332c.512-.949.767-2.097.767-3.446 0-.791-.148-1.449-.449-1.973-.3-.525-.692-.965-1.176-1.32s-1.035-.638-1.657-.85a28.752 28.752 0 0 0-1.901-.572c-.65-.17-1.282-.337-1.904-.502a7.962 7.962 0 0 1-1.657-.624 3.56 3.56 0 0 1-1.173-.94c-.3-.374-.452-.862-.452-1.463 0-.286.018-.535.053-.747.032-.21.113-.385.244-.521s.322-.238.572-.307c.254-.067.597-.102 1.035-.102.586 0 1.12.025 1.604.072s1.007.071 1.565.071c1.307 0 2.491-.159 3.547-.48 1.056-.32 1.957-.753 2.703-1.298.742-.544 1.314-1.182 1.717-1.911.403-.73.604-1.51.604-2.342 0-.546-.159-1.046-.473-1.503-.311-.458-.753-.866-1.318-1.228a9.852 9.852 0 0 0-1.993-.95 18.16 18.16 0 0 0-2.498-.685 25.737 25.737 0 0 0-2.841-.41 34.419 34.419 0 0 0-6.863.084 23.58 23.58 0 0 0-3.517.654c-1.085.293-2.046.662-2.885 1.104-.839.443-1.477.959-1.913 1.546-.885 1.608-1.676 2.816-2.372 3.62-.694.804-1.261 1.207-1.698 1.207-.599 0-.899-.689-.899-2.065 0-1.337.191-2.537.572-3.6s.917-2.009 1.606-2.833a9.914 9.914 0 0 1 2.454-2.106 15.287 15.287 0 0 1 3.109-1.433 20.336 20.336 0 0 1 3.57-.828 27.624 27.624 0 0 1 3.865-.265c1.54 0 3.088.111 4.642.337 1.555.224 3.049.542 4.48.95 1.431.41 2.766.904 4.01 1.484 1.24.579 2.321 1.221 3.24 1.922.922.703 1.643 1.463 2.169 2.281.523.818.788 1.671.788 2.556-.001 1.045-.231 2.081-.686 3.103zm106.656 14.359v4.153c-.491.449-1.102.929-1.832 1.441-.73.511-1.516.982-2.362 1.411s-1.708.788-2.588 1.074c-.878.286-1.714.429-2.505.429-.708 0-1.305-.099-1.789-.297a2.984 2.984 0 0 1-1.176-.828 3.188 3.188 0 0 1-.643-1.298l-.018-.076a26.62 26.62 0 0 1-.321.187c-.518.286-1.053.571-1.606.85-.551.279-1.108.528-1.668.747-.558.217-1.104.39-1.636.521a6.358 6.358 0 0 1-1.493.194c-.737 0-1.422-.325-2.056-.972-.634-.648-1.185-1.517-1.655-2.607-.472-1.092-.839-2.357-1.106-3.794a24.985 24.985 0 0 1-.397-4.531l.003-.361a38.7 38.7 0 0 0-.648-.519c-.703-.544-1.396-1.06-2.077-1.544s-1.267-.89-1.758-1.217l-.164.226c.396.79.692 1.625.89 2.505s.297 1.721.297 2.526c0 .804-.09 1.616-.267 2.434-.177.818-.433 1.609-.767 2.372s-.744 1.479-1.228 2.146a8.656 8.656 0 0 1-1.657 1.74c-.62.491-1.298.88-2.035 1.166a6.427 6.427 0 0 1-2.351.429c-1.199 0-2.226-.263-3.079-.788a6.55 6.55 0 0 1-2.095-2.056 8.716 8.716 0 0 1-.798-1.575 20.455 20.455 0 0 1-2.179 1.964c-.594.465-1.215.876-1.862 1.238a11.3 11.3 0 0 1-2.024.88 7 7 0 0 1-2.137.337c-1.256 0-2.357-.231-3.303-.696a7.056 7.056 0 0 1-2.383-1.862 7.853 7.853 0 0 1-1.145-1.883 20.455 20.455 0 0 1-2.199 1.985c-.594.465-1.215.876-1.862 1.238a11.3 11.3 0 0 1-2.024.88 7 7 0 0 1-2.137.337c-1.256 0-2.357-.231-3.303-.696a7.056 7.056 0 0 1-2.383-1.862 8.037 8.037 0 0 1-1.452-2.699 10.412 10.412 0 0 1-.491-3.19c0-.791.081-1.616.246-2.475.09-.472.205-.939.342-1.402-.19-.154-.382-.308-.577-.46a63.73 63.73 0 0 0-2.077-1.544 74.247 74.247 0 0 0-1.758-1.217l-.164.226c.396.79.692 1.625.89 2.505s.297 1.721.297 2.526c0 .804-.09 1.616-.267 2.434-.177.818-.433 1.609-.767 2.372s-.744 1.479-1.228 2.146a8.656 8.656 0 0 1-1.657 1.74c-.62.491-1.298.88-2.035 1.166a6.427 6.427 0 0 1-2.351.429c-1.199 0-2.226-.263-3.079-.788a6.55 6.55 0 0 1-2.095-2.056 9.107 9.107 0 0 1-1.198-2.864 13.836 13.836 0 0 1-.15-.717c-.259.102-.523.195-.792.277a5.668 5.668 0 0 1-1.687.256c-1.023 0-1.848-.207-2.475-.624a4.53 4.53 0 0 1-1.493-1.636 8.277 8.277 0 0 1-.818-2.27 30.405 30.405 0 0 1-.429-2.547h-.329l-3.66 10.207c-.191.532-.373.972-.542 1.318a4.52 4.52 0 0 1-.521.85 1.538 1.538 0 0 1-.572.459c-.205.09-.431.134-.677.134-.558 0-1.009-.12-1.35-.359a2.315 2.315 0 0 1-.786-.961 4.589 4.589 0 0 1-.369-1.371 13.153 13.153 0 0 1-.092-1.585c0-.601.034-1.298.102-2.097a56.69 56.69 0 0 1 .276-2.526 73.29 73.29 0 0 1 .91-5.339c.178-.832.355-1.595.532-2.291.178-.694.355-1.267.533-1.717.108-.3.217-.539.327-.715.108-.178.235-.318.378-.42s.32-.17.532-.205c.212-.034.473-.049.788-.049.353 0 .631.016.828.049.198.035.344.117.44.246.095.131.152.318.173.564.021.246.03.579.03 1.002v1.83c0 .717.014 1.422.042 2.118h.224a376.3 376.3 0 0 1 .92-1.83 11.89 11.89 0 0 1 1.187-1.892 7.031 7.031 0 0 1 1.533-1.484c.572-.401 1.233-.602 1.984-.602.26 0 .511.044.756.132a1.82 1.82 0 0 1 1.085.982c.11.238.164.507.164.807 0 .231-.035.556-.102.972a90.71 90.71 0 0 1-.226 1.309 86.23 86.23 0 0 0-.224 1.328 6.99 6.99 0 0 0-.102 1.074c0 .491.048.901.143 1.228s.223.59.378.788c.157.198.334.337.532.419.198.081.406.124.625.124.556 0 1.129-.113 1.719-.338.11-.809.293-1.586.551-2.331.45-1.302 1.095-2.434 1.933-3.395a8.935 8.935 0 0 1 3.079-2.272c1.214-.551 2.577-.827 4.089-.827 1.297 0 2.51.201 3.641.602 1.132.403 2.192.942 3.181 1.616a18.34 18.34 0 0 1 2.761 2.321l.15.156c.157-.296.326-.587.505-.871a9.394 9.394 0 0 1 1.636-1.975c.62-.565 1.313-1.016 2.076-1.35s1.602-.5 2.516-.5c.777 0 1.496.118 2.159.357a5.117 5.117 0 0 1 1.698.993c.47.422.837.924 1.104 1.503.265.579.399 1.203.399 1.871 0 .465-.062.92-.185 1.371a4.17 4.17 0 0 1-.541 1.217c-.24.36-.53.65-.869.869a2.093 2.093 0 0 1-1.146.327c-.641 0-1.06-.17-1.258-.511s-.297-.811-.297-1.411c0-.246.011-.505.032-.777.019-.274.03-.518.03-.737 0-.327-.034-.601-.102-.818-.069-.219-.219-.327-.45-.327-.558 0-1.035.132-1.431.397a3.617 3.617 0 0 0-1.012 1.044 5.614 5.614 0 0 0-.666 1.452 14.351 14.351 0 0 0-.389 1.606c-.095.532-.155 1.04-.184 1.523-.027.484-.041.89-.041 1.217 0 .491.044 1.003.132 1.535s.256 1.019.502 1.463c.246.442.579.811 1.002 1.104.424.293.968.44 1.638.44.654 0 1.376-.201 2.168-.604a15.31 15.31 0 0 0 2.383-1.523 22.005 22.005 0 0 0 2.013-1.758c-.012-.21-.019-.422-.019-.636 0-.791.081-1.616.246-2.475.164-.859.406-1.701.726-2.526.32-.825.715-1.613 1.187-2.362a9.394 9.394 0 0 1 1.636-1.975c.62-.565 1.313-1.016 2.076-1.35s1.602-.5 2.516-.5c.777 0 1.496.118 2.159.357a5.117 5.117 0 0 1 1.698.993c.47.422.837.924 1.104 1.503.265.579.399 1.203.399 1.871 0 .465-.062.92-.185 1.371a4.17 4.17 0 0 1-.541 1.217c-.24.36-.53.65-.869.869a2.093 2.093 0 0 1-1.146.327c-.641 0-1.06-.17-1.258-.511s-.297-.811-.297-1.411c0-.246.011-.505.032-.777.019-.274.03-.518.03-.737 0-.327-.034-.601-.102-.818-.069-.219-.219-.327-.45-.327-.558 0-1.035.132-1.431.397a3.617 3.617 0 0 0-1.012 1.044 5.614 5.614 0 0 0-.666 1.452 14.351 14.351 0 0 0-.389 1.606c-.095.532-.155 1.04-.184 1.523-.027.484-.041.89-.041 1.217 0 .491.044 1.003.132 1.535s.256 1.019.502 1.463c.246.442.579.811 1.002 1.104.424.293.968.44 1.638.44.654 0 1.376-.201 2.168-.604a15.31 15.31 0 0 0 2.383-1.523 22.174 22.174 0 0 0 2.039-1.784 13.896 13.896 0 0 1-.044-1.101c0-1.5.224-2.901.675-4.203.45-1.302 1.095-2.434 1.933-3.395a8.935 8.935 0 0 1 3.079-2.272c1.214-.551 2.577-.827 4.089-.827 1.297 0 2.51.201 3.641.602 1.132.403 2.192.942 3.181 1.616a18.077 18.077 0 0 1 2.157 1.732l.021-.177c.177-1.426.436-2.895.777-4.407a61.132 61.132 0 0 1 1.217-4.561 46.344 46.344 0 0 1 1.595-4.399 37.463 37.463 0 0 1 1.933-3.938c.696-1.219 1.426-2.282 2.189-3.19.763-.906 1.562-1.618 2.394-2.137.83-.518 1.676-.777 2.535-.777.586 0 1.07.134 1.454.399.382.267.68.617.899 1.053.217.438.371.931.459 1.484.09.551.134 1.115.134 1.687 0 1.282-.147 2.588-.44 3.916a30.3 30.3 0 0 1-1.187 4.01 45.608 45.608 0 0 1-1.728 4.038 118.631 118.631 0 0 1-2.046 4.021 274.045 274.045 0 0 1-2.137 3.927 124.644 124.644 0 0 0-2.014 3.773 4.241 4.241 0 0 0-.216.532 10.91 10.91 0 0 0-.214.705c-.069.253-.138.521-.205.809a9.413 9.413 0 0 0-.164.837v.286c0 .355.037.7.113 1.033.074.334.166.634.276.901.11.265.224.477.348.632.122.157.238.237.348.237.258 0 .555-.055.889-.164.334-.11.689-.256 1.063-.44a15.37 15.37 0 0 0 1.157-.634c.394-.238.777-.48 1.145-.726.443-.295.898-.615 1.363-.958.167-.887.361-1.799.58-2.734.288-1.219.59-2.436.912-3.651.32-1.212.602-2.33.848-3.353.095-.355.286-.659.572-.912.286-.251.611-.456.972-.613a5.45 5.45 0 0 1 1.125-.348c.389-.074.74-.111 1.053-.111.574 0 .963.104 1.166.316.205.212.307.495.307.85 0 .299-.069.733-.205 1.298s-.306 1.207-.511 1.922-.424 1.487-.655 2.311c-.231.827-.449 1.65-.654 2.475-.205.827-.376 1.63-.512 2.415a12.49 12.49 0 0 0-.203 2.116c0 .613.067 1.101.203 1.463.136.36.417.542.839.542.491 0 1.037-.171 1.636-.512a14.562 14.562 0 0 0 1.821-1.237 43 43 0 0 0 1.8-1.503c.58-.513 1.099-.954 1.549-1.323zm-80.199-2.761c0-.627-.049-1.21-.143-1.749-.097-.539-.24-1.005-.431-1.401s-.436-.708-.735-.942c-.3-.231-.662-.346-1.085-.346-.56 0-1.092.238-1.595.715-.505.477-.949 1.086-1.33 1.83a11.05 11.05 0 0 0-.899 2.464 10.992 10.992 0 0 0-.327 2.599c0 .572.053 1.111.163 1.615.11.505.279.945.512 1.32.231.376.537.675.92.901.382.224.837.337 1.369.337.465 0 .913-.235 1.351-.707.436-.47.818-1.063 1.145-1.779.327-.715.59-1.507.788-2.372.198-.866.297-1.694.297-2.485zm47.964 0c0-.627-.049-1.21-.143-1.749-.097-.539-.24-1.005-.431-1.401s-.436-.708-.735-.942c-.3-.231-.662-.346-1.085-.346-.56 0-1.092.238-1.595.715-.505.477-.949 1.086-1.33 1.83s-.682 1.565-.899 2.464a10.992 10.992 0 0 0-.327 2.599c0 .572.053 1.111.163 1.615.11.505.279.945.512 1.32.231.376.537.675.92.901.382.224.837.337 1.369.337.465 0 .913-.235 1.351-.707.436-.47.818-1.063 1.145-1.779.327-.715.59-1.507.788-2.372.198-.866.297-1.694.297-2.485zm12.62-5.093a95.02 95.02 0 0 0 1.952-3.681c.689-1.364 1.341-2.768 1.954-4.213s1.145-2.888 1.595-4.326.737-2.779.859-4.019c0-.396-.009-.733-.03-1.012-.021-.279-.085-.42-.194-.42-.396 0-.821.256-1.279.768-.456.511-.913 1.203-1.369 2.076a24.01 24.01 0 0 0-1.309 3.047 38.522 38.522 0 0 0-1.115 3.703 37.728 37.728 0 0 0-.777 4.038 29.222 29.222 0 0 0-.287 4.039zm11.33-6.761c.574.567 1.459.85 2.66.85.694 0 1.291-.106 1.789-.318.496-.21.91-.486 1.237-.827s.565-.73.715-1.166.226-.887.226-1.351c0-.503-.092-.94-.276-1.309a2.418 2.418 0 0 0-.747-.889 3.287 3.287 0 0 0-1.104-.502 5.355 5.355 0 0 0-1.351-.164c-.763 0-1.401.12-1.911.359-.512.238-.92.532-1.228.88a3.32 3.32 0 0 0-.664 1.115c-.136.396-.205.751-.205 1.063.001.941.287 1.694.859 2.259z"/></g></svg>