<svg xmlns="http://www.w3.org/2000/svg" width="146" height="61.109" viewBox="116.5 155.162 146 61.109"><path fill="#67B86A" d="M207.338 194.011c6.021 0 10.901-5.004 10.901-11.177 0-3.536-1.606-6.682-4.106-8.731a9.985 9.985 0 0 0 .208-2.009c0-.703-.08-1.384-.218-2.045-1.686-1.625-3.929-2.645-6.427-2.645a9.266 9.266 0 0 0-5.428 1.767c-.958-4.106-4.538-7.169-8.837-7.169-3.838 0-7.106 2.44-8.448 5.884a9.001 9.001 0 0 0-3.425-.689c-5.114 0-9.259 4.25-9.259 9.493 0 .409.068.799.117 1.195-3.35 2.004-5.608 5.718-5.608 9.982-.109 1.465.246 2.587.807 3.459 2.009 1.898 4.683 3.067 7.631 3.067 1.398 0 2.731-.273 3.967-.75a11.77 11.77 0 0 0 6.303 1.838c5.481 0 10.1-3.752 11.566-8.885l.771 2.981 2.02 2.224 1.727.534a10.632 10.632 0 0 0 5.738 1.676z"/><path fill="#4EAF50" d="M218.24 182.835c0-.684-.077-1.347-.192-1.997-.146-.28-.283-.553-.466-.862-1.736-2.268-4.403-3.752-7.433-3.752a9.266 9.266 0 0 0-5.428 1.767c-.958-4.106-4.538-7.169-8.837-7.169-3.838 0-7.106 2.44-8.448 5.884a9.001 9.001 0 0 0-3.425-.689c-5.114 0-9.259 4.25-9.259 9.493 0 .409.069.799.117 1.195-2.328 1.393-4.107 3.622-4.989 6.277a10.935 10.935 0 0 0 5.366 1.412c1.398 0 2.731-.273 3.967-.75a11.77 11.77 0 0 0 6.303 1.838c5.481 0 10.1-3.752 11.566-8.885l.771 2.981 2.02 2.224 1.727.534a10.618 10.618 0 0 0 5.737 1.676c6.022-.001 10.903-5.005 10.903-11.177z"/><path fill="#112015" d="M192.915 201.163v6.431a1.81 1.81 0 0 1-3.618 0v-6.431a1.81 1.81 0 0 1 3.618 0zm8.562-4.228a1.812 1.812 0 0 0-2.402.882l-4.184 9.044a1.81 1.81 0 0 0 3.284 1.52l4.184-9.044a1.81 1.81 0 0 0-.882-2.402zm14.598-23.524c.05-.442.076-.881.076-1.316 0-6.359-5.065-11.531-11.292-11.531-1.538 0-3.039.319-4.435.934-1.778-3.822-5.552-6.336-9.83-6.336-3.923 0-7.455 2.107-9.395 5.489a10.6 10.6 0 0 0-2.478-.295c-6.102 0-11.067 5.07-11.067 11.301 0 .1.003.2.008.298-3.418 2.494-5.498 6.561-5.498 10.879 0 7.371 5.869 13.368 13.084 13.368 1.022 0 2.039-.125 3.039-.373 1.82 3.658 5.043 10.297 5.664 12.321a1.81 1.81 0 0 0 3.46-1.061c-.575-1.874-2.794-6.563-4.497-10.055.856.169 1.728.256 2.605.256 6.119 0 11.591-4.194 13.305-10.198a1.808 1.808 0 1 0-3.479-.993c-1.274 4.459-5.315 7.573-9.827 7.573a10 10 0 0 1-5.338-1.559l-.769-.485-.847.327a9.167 9.167 0 0 1-3.316.629c-5.219 0-9.466-4.374-9.466-9.75 0-3.455 1.812-6.685 4.727-8.429l1.013-.606-.183-1.444c-.031-.23-.067-.459-.067-.698 0-4.237 3.341-7.683 7.449-7.683.92 0 1.842.186 2.74.554l1.703.698.668-1.714c1.12-2.874 3.775-4.732 6.763-4.732 3.373 0 6.283 2.373 7.076 5.77l.616 2.64 2.201-1.582a7.452 7.452 0 0 1 4.372-1.426c4.232 0 7.674 3.55 7.674 7.913 0 .537-.057 1.092-.171 1.647l-.218 1.07.844.692c2.188 1.792 3.443 4.464 3.443 7.331 0 5.165-4.079 9.368-9.092 9.368a8.837 8.837 0 0 1-4.763-1.392 1.808 1.808 0 1 0-1.947 3.049 12.45 12.45 0 0 0 6.71 1.961c7.009 0 12.71-5.825 12.71-12.986-.001-3.596-1.437-6.975-3.975-9.424z"/></svg>