<svg id="Layer_2" xmlns="http://www.w3.org/2000/svg" viewBox="0 0 57.9 61.1"><style>.st0{fill:#67b86a}.st1{fill:#4eaf50}.st2{fill:#112015}</style><g id="color"><path class="st0" d="M45.2 38.8c6 0 10.9-5 10.9-11.2 0-3.5-1.6-6.7-4.1-8.7.1-.6.2-1.3.2-2s-.1-1.4-.2-2c-1.7-1.6-3.9-2.6-6.4-2.6-2 0-3.9.7-5.4 1.8-1-4.1-4.5-7.2-8.8-7.2-3.8 0-7.1 2.4-8.4 5.9-1.1-.4-2.2-.7-3.4-.7-5.1 0-9.3 4.3-9.3 9.5 0 .4.1.8.1 1.2-3.4 2-5.6 5.7-5.6 10-.1 1.5.2 2.6.8 3.5 2 1.9 4.7 3.1 7.6 3.1 1.4 0 2.7-.3 4-.8 1.8 1.2 4 1.8 6.3 1.8 5.5 0 10.1-3.8 11.6-8.9l.8 3 2 2.2 1.7.5c1.5 1 3.5 1.6 5.6 1.6z"/><path class="st1" d="M56.1 27.7c0-.7-.1-1.3-.2-2-.1-.3-.3-.6-.5-.9C53.7 22.5 51 21 48 21c-2 0-3.9.7-5.4 1.8-1-4.1-4.5-7.2-8.8-7.2-3.8 0-7.1 2.4-8.4 5.9-1.1-.4-2.2-.7-3.4-.7-5.1 0-9.3 4.3-9.3 9.5 0 .4.1.8.1 1.2-2.3 1.4-4.1 3.6-5 6.3 1.6.9 3.4 1.4 5.4 1.4 1.4 0 2.7-.3 4-.8 1.8 1.2 4 1.8 6.3 1.8 5.5 0 10.1-3.8 11.6-8.9l.8 3 2 2.2 1.7.5c1.7 1.1 3.6 1.7 5.7 1.7 5.9.1 10.8-4.9 10.8-11z"/><path class="st2" d="M30.8 46v6.4c0 1-.8 1.8-1.8 1.8s-1.8-.8-1.8-1.8V46c0-1 .8-1.8 1.8-1.8s1.8.8 1.8 1.8zm8.5-4.2c-.9-.4-2 0-2.4.9l-4.2 9c-.4.9 0 2 .9 2.4.2.1.5.2.8.2.7 0 1.3-.4 1.6-1l4.2-9c.4-1 0-2.1-.9-2.5zm14.6-23.6c.1-.4.1-.9.1-1.3 0-6.4-5.1-11.5-11.3-11.5-1.5 0-3 .3-4.4.9C36.5 2.5 32.7 0 28.4 0 24.5 0 21 2.1 19 5.5c-.8-.2-1.6-.3-2.5-.3-6.1 0-11.1 5.1-11.1 11.3v.3C2.1 19.3 0 23.4 0 27.7 0 35 5.9 41 13.1 41c1 0 2-.1 3-.4 1.8 3.7 5 10.3 5.7 12.3.2.8 1 1.3 1.7 1.3.2 0 .4 0 .5-.1 1-.3 1.5-1.3 1.2-2.3-.6-1.9-2.8-6.6-4.5-10.1.9.2 1.7.3 2.6.3 6.1 0 11.6-4.2 13.3-10.2.3-1-.3-2-1.2-2.2-1-.3-2 .3-2.2 1.2-1.3 4.5-5.3 7.6-9.8 7.6-1.9 0-3.7-.5-5.3-1.6l-.8-.5-.8.3c-1.1.4-2.2.6-3.3.6-5.2 0-9.5-4.4-9.5-9.8 0-3.5 1.8-6.7 4.7-8.4l1-.6-.2-1.4c0-.2-.1-.5-.1-.7 0-4.2 3.3-7.7 7.4-7.7.9 0 1.8.2 2.7.6l1.7.7.7-1.7c1.1-2.9 3.8-4.7 6.8-4.7 3.4 0 6.3 2.4 7.1 5.8l.6 2.6 2.2-1.6c1.3-.8 2.8-1.3 4.4-1.3 4.2 0 7.7 3.6 7.7 7.9 0 .5-.1 1.1-.2 1.6l-.2 1.1.8.7c2.2 1.8 3.4 4.5 3.4 7.3 0 5.2-4.1 9.4-9.1 9.4-1.7 0-3.3-.5-4.8-1.4-.8-.5-2-.3-2.5.6-.5.8-.3 2 .6 2.5 2 1.3 4.3 2 6.7 2 7 0 12.7-5.8 12.7-13 .1-3.6-1.4-7-3.9-9.5z"/></g></svg>